Bevan.ufo
<glyph name="exclam" format="1">
  <advance width="679"/>
  <unicode hex="0021"/>
  <outline>
    <contour>
      <point x="335" y="-33" type="curve" smooth="yes"/>
      <point x="420" y="-33"/>
      <point x="489" y="-11"/>
      <point x="542" y="33" type="curve" smooth="yes"/>
      <point x="595" y="77"/>
      <point x="622" y="137"/>
      <point x="622" y="212" type="curve" smooth="yes"/>
      <point x="622" y="289"/>
      <point x="595" y="350"/>
      <point x="540" y="395" type="curve" smooth="yes"/>
      <point x="485" y="440"/>
      <point x="417" y="463"/>
      <point x="336" y="463" type="curve"/>
      <point x="334" y="462" type="line"/>
      <point x="255" y="462"/>
      <point x="189" y="440"/>
      <point x="136" y="395" type="curve" smooth="yes"/>
      <point x="83" y="350"/>
      <point x="57" y="289"/>
      <point x="57" y="212" type="curve" smooth="yes"/>
      <point x="57" y="137"/>
      <point x="83" y="77"/>
      <point x="135" y="33" type="curve" smooth="yes"/>
      <point x="187" y="-11"/>
      <point x="254" y="-33"/>
    </contour>
    <contour>
      <point x="126" y="556" type="line"/>
      <point x="547" y="558" type="line"/>
      <point x="631" y="1331" type="line"/>
      <point x="631" y="1630" type="line"/>
      <point x="44" y="1630" type="line"/>
      <point x="44" y="1331" type="line"/>
    </contour>
  </outline>
</glyph>
<glyph name="quotedbl" format="1">
  <advance width="1148"/>
  <unicode hex="0022"/>
  <outline>
    <contour>
      <point x="121" y="945" type="line"/>
      <point x="421" y="945" type="line"/>
      <point x="521" y="1624" type="line"/>
      <point x="41" y="1624" type="line"/>
    </contour>
    <contour>
      <point x="708" y="945" type="line"/>
      <point x="1008" y="945" type="line"/>
      <point x="1108" y="1624" type="line"/>
      <point x="628" y="1624" type="line"/>
    </contour>
  </outline>
</glyph>
<glyph name="numbersign" format="1">
  <advance width="1354"/>
  <unicode hex="0023"/>
  <outline>
    <contour>
      <point x="105" y="0" type="line"/>
      <point x="418" y="0" type="line"/>
      <point x="483" y="286" type="line"/>
      <point x="647" y="286" type="line"/>
      <point x="584" y="0" type="line"/>
      <point x="897" y="0" type="line"/>
      <point x="962" y="286" type="line"/>
      <point x="1112" y="286" type="line"/>
      <point x="1175" y="585" type="line"/>
      <point x="1031" y="585" type="line"/>
      <point x="1114" y="947" type="line"/>
      <point x="1259" y="947" type="line"/>
      <point x="1322" y="1246" type="line"/>
      <point x="1182" y="1246" type="line"/>
      <point x="1269" y="1623" type="line"/>
      <point x="945" y="1623" type="line"/>
      <point x="861" y="1246" type="line"/>
      <point x="703" y="1246" type="line"/>
      <point x="790" y="1623" type="line"/>
      <point x="466" y="1623" type="line"/>
      <point x="382" y="1246" type="line"/>
      <point x="242" y="1246" type="line"/>
      <point x="179" y="947" type="line"/>
      <point x="315" y="947" type="line"/>
      <point x="235" y="585" type="line"/>
      <point x="95" y="585" type="line"/>
      <point x="32" y="286" type="line"/>
      <point x="168" y="286" type="line"/>
    </contour>
    <contour>
      <point x="552" y="585" type="line"/>
      <point x="635" y="947" type="line"/>
      <point x="794" y="947" type="line"/>
      <point x="714" y="585" type="line"/>
    </contour>
  </outline>
</glyph>
<glyph name="percent" format="1">
  <advance width="2693"/>
  <unicode hex="0025"/>
  <outline>
    <contour>
      <point x="524" y="889" type="curve" smooth="yes"/>
      <point x="462" y="889"/>
      <point x="431" y="958"/>
      <point x="431" y="1097" type="curve" smooth="yes"/>
      <point x="431" y="1171"/>
      <point x="436" y="1222"/>
      <point x="447" y="1250" type="curve" smooth="yes"/>
      <point x="462" y="1290"/>
      <point x="489" y="1311"/>
      <point x="527" y="1312" type="curve"/>
      <point x="532" y="1311" type="line"/>
      <point x="547" y="1310"/>
      <point x="560" y="1306"/>
      <point x="571" y="1299" type="curve" smooth="yes"/>
      <point x="582" y="1292"/>
      <point x="591" y="1281"/>
      <point x="598" y="1267" type="curve" smooth="yes"/>
      <point x="605" y="1253"/>
      <point x="610" y="1240"/>
      <point x="614" y="1228" type="curve" smooth="yes"/>
      <point x="618" y="1216"/>
      <point x="621" y="1200"/>
      <point x="622" y="1181" type="curve" smooth="yes"/>
      <point x="623" y="1162"/>
      <point x="624" y="1147"/>
      <point x="624" y="1137" type="curve" smooth="yes"/>
      <point x="624" y="1095" type="line" smooth="yes"/>
      <point x="623" y="1069" type="line" smooth="yes"/>
      <point x="623" y="1054"/>
      <point x="623" y="1041"/>
      <point x="622" y="1030" type="curve" smooth="yes"/>
      <point x="621" y="1019"/>
      <point x="620" y="1006"/>
      <point x="618" y="991" type="curve" smooth="yes"/>
      <point x="616" y="976"/>
      <point x="613" y="963"/>
      <point x="608" y="952" type="curve" smooth="yes"/>
      <point x="603" y="941"/>
      <point x="597" y="930"/>
      <point x="590" y="920" type="curve" smooth="yes"/>
      <point x="583" y="910"/>
      <point x="574" y="902"/>
      <point x="563" y="897" type="curve" smooth="yes"/>
      <point x="552" y="892"/>
      <point x="539" y="889"/>
    </contour>
    <contour>
      <point x="2148" y="332" type="curve" smooth="yes"/>
      <point x="2086" y="332"/>
      <point x="2055" y="401"/>
      <point x="2055" y="540" type="curve" smooth="yes"/>
      <point x="2055" y="614"/>
      <point x="2060" y="665"/>
      <point x="2071" y="693" type="curve" smooth="yes"/>
      <point x="2087" y="732"/>
      <point x="2114" y="753"/>
      <point x="2151" y="755" type="curve"/>
      <point x="2156" y="754" type="line"/>
      <point x="2171" y="753"/>
      <point x="2184" y="749"/>
      <point x="2195" y="742" type="curve" smooth="yes"/>
      <point x="2206" y="735"/>
      <point x="2215" y="724"/>
      <point x="2222" y="710" type="curve" smooth="yes"/>
      <point x="2229" y="696"/>
      <point x="2234" y="683"/>
      <point x="2238" y="671" type="curve" smooth="yes"/>
      <point x="2242" y="659"/>
      <point x="2245" y="643"/>
      <point x="2246" y="624" type="curve" smooth="yes"/>
      <point x="2247" y="605"/>
      <point x="2248" y="590"/>
      <point x="2248" y="580" type="curve" smooth="yes"/>
      <point x="2248" y="570"/>
      <point x="2248" y="556"/>
      <point x="2247" y="539" type="curve"/>
      <point x="2247" y="512" type="line" smooth="yes"/>
      <point x="2247" y="497"/>
      <point x="2247" y="484"/>
      <point x="2246" y="473" type="curve" smooth="yes"/>
      <point x="2245" y="462"/>
      <point x="2244" y="449"/>
      <point x="2242" y="434" type="curve" smooth="yes"/>
      <point x="2240" y="419"/>
      <point x="2237" y="406"/>
      <point x="2232" y="395" type="curve" smooth="yes"/>
      <point x="2227" y="384"/>
      <point x="2221" y="373"/>
      <point x="2214" y="363" type="curve" smooth="yes"/>
      <point x="2207" y="353"/>
      <point x="2198" y="345"/>
      <point x="2187" y="340" type="curve" smooth="yes"/>
      <point x="2176" y="335"/>
      <point x="2163" y="332"/>
    </contour>
    <contour>
      <point x="550" y="539" type="curve" smooth="yes"/>
      <point x="386" y="539"/>
      <point x="259" y="588"/>
      <point x="168" y="685" type="curve" smooth="yes"/>
      <point x="77" y="782"/>
      <point x="32" y="913"/>
      <point x="32" y="1078" type="curve" smooth="yes"/>
      <point x="32" y="1077" type="line" smooth="yes"/>
      <point x="32" y="1182"/>
      <point x="52" y="1278"/>
      <point x="91" y="1365" type="curve" smooth="yes"/>
      <point x="130" y="1452"/>
      <point x="188" y="1522"/>
      <point x="264" y="1574" type="curve" smooth="yes"/>
      <point x="340" y="1626"/>
      <point x="427" y="1652"/>
      <point x="526" y="1652" type="curve" smooth="yes"/>
      <point x="688" y="1652"/>
      <point x="812" y="1603"/>
      <point x="898" y="1504" type="curve" smooth="yes"/>
      <point x="984" y="1405"/>
      <point x="1027" y="1274"/>
      <point x="1027" y="1111" type="curve" smooth="yes"/>
      <point x="1027" y="1036"/>
      <point x="1017" y="965"/>
      <point x="997" y="898" type="curve" smooth="yes"/>
      <point x="977" y="831"/>
      <point x="948" y="770"/>
      <point x="910" y="716" type="curve" smooth="yes"/>
      <point x="872" y="662"/>
      <point x="822" y="619"/>
      <point x="760" y="587" type="curve" smooth="yes"/>
      <point x="698" y="555"/>
      <point x="628" y="539"/>
    </contour>
    <contour>
      <point x="2174" y="-18" type="curve" smooth="yes"/>
      <point x="2010" y="-18"/>
      <point x="1883" y="31"/>
      <point x="1792" y="128" type="curve" smooth="yes"/>
      <point x="1701" y="225"/>
      <point x="1656" y="356"/>
      <point x="1656" y="521" type="curve" smooth="yes"/>
      <point x="1656" y="520" type="line" smooth="yes"/>
      <point x="1656" y="625"/>
      <point x="1676" y="721"/>
      <point x="1715" y="808" type="curve" smooth="yes"/>
      <point x="1754" y="895"/>
      <point x="1812" y="965"/>
      <point x="1888" y="1017" type="curve" smooth="yes"/>
      <point x="1964" y="1069"/>
      <point x="2051" y="1095"/>
      <point x="2150" y="1095" type="curve" smooth="yes"/>
      <point x="2312" y="1095"/>
      <point x="2436" y="1046"/>
      <point x="2522" y="947" type="curve" smooth="yes"/>
      <point x="2608" y="848"/>
      <point x="2651" y="717"/>
      <point x="2651" y="554" type="curve" smooth="yes"/>
      <point x="2651" y="479"/>
      <point x="2641" y="408"/>
      <point x="2621" y="341" type="curve" smooth="yes"/>
      <point x="2601" y="274"/>
      <point x="2572" y="213"/>
      <point x="2534" y="159" type="curve" smooth="yes"/>
      <point x="2496" y="105"/>
      <point x="2446" y="62"/>
      <point x="2384" y="30" type="curve" smooth="yes"/>
      <point x="2322" y="-2"/>
      <point x="2252" y="-18"/>
    </contour>
    <contour>
      <point x="914" y="0" type="line"/>
      <point x="1417" y="0" type="line"/>
      <point x="1759" y="1623" type="line"/>
      <point x="1255" y="1623" type="line"/>
    </contour>
  </outline>
</glyph>
<glyph name="ampersand" format="1">
  <advance width="1723"/>
  <unicode hex="0026"/>
  <outline>
    <contour>
      <point x="492" y="-30" type="curve"/>
      <point x="676" y="-26"/>
      <point x="830" y="44"/>
      <point x="953" y="180" type="curve"/>
      <point x="1036" y="91"/>
      <point x="1094" y="30"/>
      <point x="1127" y="-3" type="curve"/>
      <point x="1127" y="0" type="line"/>
      <point x="1666" y="0" type="line"/>
      <point x="1666" y="368" type="line"/>
      <point x="1436" y="368" type="line"/>
      <point x="1341" y="467"/>
      <point x="1292" y="517"/>
      <point x="1289" y="518" type="curve"/>
      <point x="1459" y="694" type="line" smooth="yes"/>
      <point x="1502" y="738"/>
      <point x="1536" y="769"/>
      <point x="1561" y="787" type="curve" smooth="yes"/>
      <point x="1586" y="805"/>
      <point x="1622" y="822"/>
      <point x="1669" y="838" type="curve"/>
      <point x="1669" y="1127" type="line"/>
      <point x="1186" y="1127" type="line"/>
      <point x="1186" y="832" type="line"/>
      <point x="1233" y="832" type="line" smooth="yes"/>
      <point x="1251" y="832"/>
      <point x="1260" y="820"/>
      <point x="1260" y="797" type="curve" smooth="yes"/>
      <point x="1260" y="786"/>
      <point x="1251" y="770"/>
      <point x="1233" y="749" type="curve" smooth="yes"/>
      <point x="1215" y="728"/>
      <point x="1197" y="709"/>
      <point x="1180" y="693" type="curve" smooth="yes"/>
      <point x="1153" y="669" type="line"/>
      <point x="974" y="844" type="line"/>
      <point x="1009" y="875"/>
      <point x="1036" y="900"/>
      <point x="1054" y="919" type="curve" smooth="yes"/>
      <point x="1072" y="938"/>
      <point x="1089" y="960"/>
      <point x="1104" y="985" type="curve" smooth="yes"/>
      <point x="1119" y="1010"/>
      <point x="1129" y="1037"/>
      <point x="1134" y="1065" type="curve" smooth="yes"/>
      <point x="1139" y="1093"/>
      <point x="1142" y="1127"/>
      <point x="1142" y="1168" type="curve" smooth="yes"/>
      <point x="1142" y="1221"/>
      <point x="1129" y="1270"/>
      <point x="1104" y="1315" type="curve" smooth="yes"/>
      <point x="1079" y="1360"/>
      <point x="1046" y="1397"/>
      <point x="1005" y="1425" type="curve" smooth="yes"/>
      <point x="964" y="1453"/>
      <point x="919" y="1475"/>
      <point x="869" y="1490" type="curve" smooth="yes"/>
      <point x="819" y="1505"/>
      <point x="768" y="1513"/>
      <point x="717" y="1513" type="curve" smooth="yes"/>
      <point x="652" y="1513"/>
      <point x="590" y="1504"/>
      <point x="532" y="1486" type="curve" smooth="yes"/>
      <point x="474" y="1468"/>
      <point x="423" y="1442"/>
      <point x="379" y="1409" type="curve" smooth="yes"/>
      <point x="335" y="1376"/>
      <point x="300" y="1333"/>
      <point x="274" y="1281" type="curve" smooth="yes"/>
      <point x="248" y="1229"/>
      <point x="235" y="1171"/>
      <point x="235" y="1107" type="curve"/>
      <point x="237" y="990"/>
      <point x="277" y="889"/>
      <point x="354" y="804" type="curve"/>
      <point x="250" y="759"/>
      <point x="172" y="702"/>
      <point x="120" y="633" type="curve" smooth="yes"/>
      <point x="68" y="564"/>
      <point x="41" y="478"/>
      <point x="39" y="375" type="curve"/>
      <point x="42" y="248"/>
      <point x="86" y="149"/>
      <point x="171" y="78" type="curve" smooth="yes"/>
      <point x="256" y="7"/>
      <point x="363" y="-29"/>
    </contour>
    <contour>
      <point x="651" y="330" type="curve" smooth="yes"/>
      <point x="607" y="330"/>
      <point x="570" y="344"/>
      <point x="541" y="373" type="curve" smooth="yes"/>
      <point x="512" y="402"/>
      <point x="497" y="438"/>
      <point x="497" y="482" type="curve" smooth="yes"/>
      <point x="497" y="484" type="line" smooth="yes"/>
      <point x="497" y="495"/>
      <point x="499" y="506"/>
      <point x="503" y="517" type="curve" smooth="yes"/>
      <point x="507" y="528"/>
      <point x="512" y="537"/>
      <point x="518" y="545" type="curve" smooth="yes"/>
      <point x="524" y="553"/>
      <point x="530" y="560"/>
      <point x="536" y="566" type="curve" smooth="yes"/>
      <point x="542" y="572"/>
      <point x="547" y="576"/>
      <point x="551" y="579" type="curve" smooth="yes"/>
      <point x="558" y="584" type="line"/>
      <point x="765" y="370" type="line"/>
      <point x="730" y="343"/>
      <point x="692" y="330"/>
    </contour>
    <contour>
      <point x="794" y="1020" type="curve"/>
      <point x="826" y="1042"/>
      <point x="849" y="1062"/>
      <point x="864" y="1080" type="curve" smooth="yes"/>
      <point x="879" y="1098"/>
      <point x="886" y="1121"/>
      <point x="886" y="1148" type="curve" smooth="yes"/>
      <point x="886" y="1182"/>
      <point x="877" y="1211"/>
      <point x="859" y="1234" type="curve" smooth="yes"/>
      <point x="841" y="1257"/>
      <point x="815" y="1269"/>
      <point x="781" y="1269" type="curve" smooth="yes"/>
      <point x="755" y="1269"/>
      <point x="733" y="1259"/>
      <point x="715" y="1239" type="curve" smooth="yes"/>
      <point x="697" y="1219"/>
      <point x="688" y="1196"/>
      <point x="688" y="1170" type="curve" smooth="yes"/>
      <point x="688" y="1171" type="line" smooth="yes"/>
      <point x="688" y="1151"/>
      <point x="694" y="1131"/>
      <point x="706" y="1111" type="curve" smooth="yes"/>
      <point x="718" y="1091"/>
      <point x="730" y="1075"/>
      <point x="743" y="1063" type="curve" smooth="yes"/>
      <point x="756" y="1051"/>
      <point x="773" y="1037"/>
    </contour>
  </outline>
</glyph>
<glyph name="parenleft" format="1">
  <advance width="915"/>
  <unicode hex="0028"/>
  <outline>
    <contour>
      <point x="874" y="-20" type="curve"/>
      <point x="874" y="311" type="line"/>
      <point x="818" y="311"/>
      <point x="769" y="321"/>
      <point x="726" y="341" type="curve" smooth="yes"/>
      <point x="683" y="361"/>
      <point x="649" y="387"/>
      <point x="624" y="419" type="curve" smooth="yes"/>
      <point x="599" y="451"/>
      <point x="578" y="490"/>
      <point x="562" y="536" type="curve" smooth="yes"/>
      <point x="546" y="582"/>
      <point x="535" y="627"/>
      <point x="529" y="672" type="curve" smooth="yes"/>
      <point x="523" y="717"/>
      <point x="520" y="765"/>
      <point x="520" y="817" type="curve" smooth="yes"/>
      <point x="520" y="861"/>
      <point x="521" y="900"/>
      <point x="524" y="935" type="curve" smooth="yes"/>
      <point x="527" y="970"/>
      <point x="533" y="1008"/>
      <point x="541" y="1048" type="curve" smooth="yes"/>
      <point x="549" y="1088"/>
      <point x="562" y="1123"/>
      <point x="579" y="1153" type="curve" smooth="yes"/>
      <point x="596" y="1183"/>
      <point x="617" y="1211"/>
      <point x="642" y="1237" type="curve" smooth="yes"/>
      <point x="667" y="1263"/>
      <point x="700" y="1283"/>
      <point x="740" y="1297" type="curve" smooth="yes"/>
      <point x="780" y="1311"/>
      <point x="826" y="1318"/>
      <point x="877" y="1319" type="curve"/>
      <point x="879" y="1321" type="line"/>
      <point x="879" y="1653" type="line"/>
      <point x="726" y="1653"/>
      <point x="594" y="1635"/>
      <point x="484" y="1599" type="curve" smooth="yes"/>
      <point x="374" y="1563"/>
      <point x="285" y="1509"/>
      <point x="217" y="1437" type="curve" smooth="yes"/>
      <point x="149" y="1365"/>
      <point x="99" y="1278"/>
      <point x="67" y="1176" type="curve" smooth="yes"/>
      <point x="35" y="1074"/>
      <point x="19" y="954"/>
      <point x="19" y="816" type="curve" smooth="yes"/>
      <point x="19" y="727"/>
      <point x="29" y="642"/>
      <point x="50" y="561" type="curve" smooth="yes"/>
      <point x="71" y="480"/>
      <point x="104" y="404"/>
      <point x="150" y="333" type="curve" smooth="yes"/>
      <point x="196" y="262"/>
      <point x="252" y="200"/>
      <point x="318" y="148" type="curve" smooth="yes"/>
      <point x="384" y="96"/>
      <point x="464" y="55"/>
      <point x="559" y="25" type="curve" smooth="yes"/>
      <point x="654" y="-5"/>
      <point x="759" y="-20"/>
    </contour>
  </outline>
</glyph>
<glyph name="parenright" format="1">
  <advance width="915"/>
  <unicode hex="0029"/>
  <outline>
    <contour>
      <point x="41" y="-20" type="line"/>
      <point x="156" y="-20"/>
      <point x="261" y="-5"/>
      <point x="356" y="25" type="curve" smooth="yes"/>
      <point x="451" y="55"/>
      <point x="531" y="96"/>
      <point x="597" y="148" type="curve" smooth="yes"/>
      <point x="663" y="200"/>
      <point x="719" y="261"/>
      <point x="765" y="332" type="curve" smooth="yes"/>
      <point x="811" y="403"/>
      <point x="844" y="479"/>
      <point x="865" y="560" type="curve" smooth="yes"/>
      <point x="886" y="641"/>
      <point x="896" y="726"/>
      <point x="896" y="815" type="curve" smooth="yes"/>
      <point x="896" y="953"/>
      <point x="880" y="1073"/>
      <point x="848" y="1175" type="curve" smooth="yes"/>
      <point x="816" y="1277"/>
      <point x="766" y="1364"/>
      <point x="698" y="1436" type="curve" smooth="yes"/>
      <point x="630" y="1508"/>
      <point x="541" y="1562"/>
      <point x="431" y="1598" type="curve" smooth="yes"/>
      <point x="321" y="1634"/>
      <point x="189" y="1652"/>
      <point x="36" y="1652" type="curve"/>
      <point x="38" y="1653" type="line"/>
      <point x="38" y="1321" type="line"/>
      <point x="89" y="1320"/>
      <point x="135" y="1312"/>
      <point x="175" y="1298" type="curve" smooth="yes"/>
      <point x="215" y="1284"/>
      <point x="248" y="1264"/>
      <point x="273" y="1238" type="curve" smooth="yes"/>
      <point x="298" y="1212"/>
      <point x="319" y="1184"/>
      <point x="336" y="1154" type="curve" smooth="yes"/>
      <point x="353" y="1124"/>
      <point x="366" y="1089"/>
      <point x="374" y="1049" type="curve" smooth="yes"/>
      <point x="382" y="1009"/>
      <point x="388" y="971"/>
      <point x="391" y="936" type="curve" smooth="yes"/>
      <point x="394" y="901"/>
      <point x="395" y="861"/>
      <point x="395" y="817" type="curve" smooth="yes"/>
      <point x="395" y="765"/>
      <point x="392" y="717"/>
      <point x="386" y="672" type="curve" smooth="yes"/>
      <point x="380" y="627"/>
      <point x="369" y="582"/>
      <point x="353" y="536" type="curve" smooth="yes"/>
      <point x="337" y="490"/>
      <point x="316" y="451"/>
      <point x="291" y="419" type="curve" smooth="yes"/>
      <point x="266" y="387"/>
      <point x="232" y="361"/>
      <point x="189" y="341" type="curve" smooth="yes"/>
      <point x="146" y="321"/>
      <point x="97" y="311"/>
      <point x="41" y="311" type="curve"/>
    </contour>
  </outline>
</glyph>
<glyph name="plus" format="1">
  <advance width="816"/>
  <unicode hex="002B"/>
  <outline>
    <contour>
      <point x="284" y="238" type="line"/>
      <point x="539" y="238" type="line"/>
      <point x="539" y="517" type="line"/>
      <point x="804" y="517" type="line"/>
      <point x="804" y="762" type="line"/>
      <point x="539" y="762" type="line"/>
      <point x="539" y="1051" type="line"/>
      <point x="284" y="1051" type="line"/>
      <point x="284" y="762" type="line"/>
      <point x="12" y="762" type="line"/>
      <point x="12" y="517" type="line"/>
      <point x="284" y="517" type="line"/>
    </contour>
  </outline>
</glyph>
<glyph name="hyphen" format="1">
  <advance width="759"/>
  <unicode hex="002D"/>
  <outline>
    <contour>
      <point x="36" y="537" type="line"/>
      <point x="723" y="537" type="line"/>
      <point x="723" y="836" type="line"/>
      <point x="36" y="836" type="line"/>
    </contour>
  </outline>
</glyph>
<glyph name="slash" format="1">
  <advance width="893"/>
  <unicode hex="002F"/>
  <outline>
    <contour>
      <point x="19" y="0" type="line"/>
      <point x="372" y="0" type="line"/>
      <point x="874" y="1623" type="line"/>
      <point x="510" y="1623" type="line"/>
    </contour>
  </outline>
</glyph>
<glyph name="zero" format="1">
  <advance width="1382"/>
  <unicode hex="0030"/>
  <outline>
    <contour>
      <point x="689" y="343" type="curve"/>
      <point x="688" y="348" type="line"/>
      <point x="665" y="348"/>
      <point x="645" y="355"/>
      <point x="628" y="370" type="curve" smooth="yes"/>
      <point x="611" y="385"/>
      <point x="598" y="403"/>
      <point x="589" y="424" type="curve" smooth="yes"/>
      <point x="580" y="445"/>
      <point x="573" y="471"/>
      <point x="568" y="503" type="curve" smooth="yes"/>
      <point x="563" y="535"/>
      <point x="560" y="563"/>
      <point x="559" y="586" type="curve" smooth="yes"/>
      <point x="558" y="609"/>
      <point x="557" y="636"/>
      <point x="557" y="667" type="curve" smooth="yes"/>
      <point x="557" y="695" type="line" smooth="yes"/>
      <point x="556" y="716"/>
      <point x="556" y="738"/>
      <point x="557" y="761" type="curve" smooth="yes"/>
      <point x="558" y="784"/>
      <point x="559" y="806"/>
      <point x="560" y="828" type="curve" smooth="yes"/>
      <point x="561" y="850"/>
      <point x="565" y="871"/>
      <point x="571" y="891" type="curve" smooth="yes"/>
      <point x="577" y="911"/>
      <point x="584" y="929"/>
      <point x="593" y="945" type="curve" smooth="yes"/>
      <point x="602" y="961"/>
      <point x="615" y="973"/>
      <point x="631" y="982" type="curve" smooth="yes"/>
      <point x="647" y="991"/>
      <point x="666" y="995"/>
      <point x="687" y="995" type="curve" smooth="yes"/>
      <point x="706" y="995"/>
      <point x="722" y="992"/>
      <point x="736" y="985" type="curve" smooth="yes"/>
      <point x="750" y="978"/>
      <point x="762" y="969"/>
      <point x="771" y="957" type="curve" smooth="yes"/>
      <point x="780" y="945"/>
      <point x="788" y="931"/>
      <point x="795" y="915" type="curve" smooth="yes"/>
      <point x="802" y="899"/>
      <point x="807" y="882"/>
      <point x="810" y="864" type="curve" smooth="yes"/>
      <point x="813" y="846"/>
      <point x="815" y="827"/>
      <point x="817" y="807" type="curve" smooth="yes"/>
      <point x="819" y="787"/>
      <point x="820" y="768"/>
      <point x="820" y="749" type="curve" smooth="yes"/>
      <point x="820" y="693" type="line"/>
      <point x="820" y="665" type="line" smooth="yes"/>
      <point x="820" y="626"/>
      <point x="819" y="591"/>
      <point x="817" y="561" type="curve" smooth="yes"/>
      <point x="815" y="531"/>
      <point x="810" y="498"/>
      <point x="802" y="461" type="curve" smooth="yes"/>
      <point x="794" y="424"/>
      <point x="780" y="395"/>
      <point x="761" y="374" type="curve" smooth="yes"/>
      <point x="742" y="353"/>
      <point x="718" y="343"/>
    </contour>
    <contour>
      <point x="693" y="-26" type="curve" smooth="yes"/>
      <point x="828" y="-27"/>
      <point x="942" y="4"/>
      <point x="1036" y="66" type="curve" smooth="yes"/>
      <point x="1130" y="128"/>
      <point x="1199" y="212"/>
      <point x="1243" y="319" type="curve" smooth="yes"/>
      <point x="1287" y="426"/>
      <point x="1309" y="551"/>
      <point x="1309" y="695" type="curve" smooth="yes"/>
      <point x="1309" y="790"/>
      <point x="1294" y="878"/>
      <point x="1265" y="960" type="curve" smooth="yes"/>
      <point x="1236" y="1042"/>
      <point x="1195" y="1113"/>
      <point x="1142" y="1173" type="curve" smooth="yes"/>
      <point x="1089" y="1233"/>
      <point x="1024" y="1280"/>
      <point x="946" y="1314" type="curve" smooth="yes"/>
      <point x="868" y="1348"/>
      <point x="783" y="1365"/>
      <point x="691" y="1366" type="curve" smooth="yes"/>
      <point x="598" y="1365"/>
      <point x="512" y="1347"/>
      <point x="434" y="1313" type="curve" smooth="yes"/>
      <point x="356" y="1279"/>
      <point x="291" y="1232"/>
      <point x="238" y="1172" type="curve" smooth="yes"/>
      <point x="185" y="1112"/>
      <point x="144" y="1041"/>
      <point x="115" y="959" type="curve" smooth="yes"/>
      <point x="86" y="877"/>
      <point x="71" y="789"/>
      <point x="71" y="694" type="curve"/>
      <point x="75" y="695" type="line"/>
      <point x="75" y="551"/>
      <point x="97" y="426"/>
      <point x="141" y="319" type="curve" smooth="yes"/>
      <point x="185" y="212"/>
      <point x="254" y="128"/>
      <point x="348" y="66" type="curve" smooth="yes"/>
      <point x="442" y="4"/>
      <point x="557" y="-27"/>
    </contour>
  </outline>
</glyph>
<glyph name="three" format="1">
  <advance width="1297"/>
  <unicode hex="0033"/>
  <outline>
    <contour>
      <point x="574" y="-18" type="curve" smooth="yes"/>
      <point x="774" y="-18"/>
      <point x="932" y="25"/>
      <point x="1048" y="110" type="curve" smooth="yes"/>
      <point x="1164" y="195"/>
      <point x="1222" y="316"/>
      <point x="1222" y="473" type="curve" smooth="yes"/>
      <point x="1222" y="566"/>
      <point x="1188" y="650"/>
      <point x="1119" y="725" type="curve" smooth="yes"/>
      <point x="1050" y="800"/>
      <point x="968" y="842"/>
      <point x="872" y="851" type="curve"/>
      <point x="1061" y="1007"/>
      <point x="1156" y="1086"/>
      <point x="1156" y="1088" type="curve" smooth="yes"/>
      <point x="1156" y="1352" type="line"/>
      <point x="87" y="1352" type="line"/>
      <point x="87" y="899" type="line"/>
      <point x="281" y="898" type="line"/>
      <point x="295" y="951"/>
      <point x="307" y="985"/>
      <point x="317" y="1000" type="curve" smooth="yes"/>
      <point x="336" y="1027"/>
      <point x="370" y="1041"/>
      <point x="418" y="1041" type="curve" smooth="yes"/>
      <point x="638" y="1041" type="line"/>
      <point x="638" y="1031" type="line"/>
      <point x="296" y="740" type="line"/>
      <point x="296" y="582" type="line"/>
      <point x="297" y="577" type="line"/>
      <point x="301" y="574"/>
      <point x="308" y="572"/>
      <point x="317" y="572" type="curve" smooth="yes"/>
      <point x="321" y="572"/>
      <point x="337" y="575"/>
      <point x="364" y="582" type="curve" smooth="yes"/>
      <point x="391" y="589"/>
      <point x="418" y="592"/>
      <point x="444" y="592" type="curve" smooth="yes"/>
      <point x="474" y="592"/>
      <point x="503" y="589"/>
      <point x="530" y="584" type="curve" smooth="yes"/>
      <point x="557" y="579"/>
      <point x="583" y="570"/>
      <point x="608" y="558" type="curve" smooth="yes"/>
      <point x="633" y="546"/>
      <point x="653" y="529"/>
      <point x="668" y="506" type="curve" smooth="yes"/>
      <point x="683" y="483"/>
      <point x="691" y="456"/>
      <point x="691" y="425" type="curve" smooth="yes"/>
      <point x="691" y="398"/>
      <point x="684" y="375"/>
      <point x="670" y="355" type="curve" smooth="yes"/>
      <point x="656" y="335"/>
      <point x="638" y="320"/>
      <point x="615" y="309" type="curve" smooth="yes"/>
      <point x="592" y="298"/>
      <point x="568" y="290"/>
      <point x="544" y="285" type="curve" smooth="yes"/>
      <point x="520" y="280"/>
      <point x="495" y="278"/>
      <point x="469" y="278" type="curve" smooth="yes"/>
      <point x="343" y="278"/>
      <point x="220" y="327"/>
      <point x="99" y="424" type="curve"/>
      <point x="99" y="78" type="line"/>
      <point x="158" y="38"/>
      <point x="226" y="12"/>
      <point x="302" y="0" type="curve" smooth="yes"/>
      <point x="378" y="-12"/>
      <point x="469" y="-18"/>
    </contour>
  </outline>
</glyph>
<glyph name="four" format="1">
  <advance width="1340"/>
  <unicode hex="0034"/>
  <outline>
    <contour>
      <point x="471" y="0" type="line"/>
      <point x="1176" y="0" type="line"/>
      <point x="1176" y="288" type="line"/>
      <point x="1054" y="288" type="line"/>
      <point x="1054" y="420" type="line"/>
      <point x="1282" y="420" type="line"/>
      <point x="1282" y="677" type="line"/>
      <point x="1055" y="675" type="line"/>
      <point x="1055" y="1341" type="line"/>
      <point x="616" y="1342" type="line"/>
      <point x="65" y="688" type="line"/>
      <point x="65" y="419" type="line"/>
      <point x="598" y="420" type="line"/>
      <point x="598" y="288" type="line"/>
      <point x="471" y="288" type="line"/>
    </contour>
    <contour>
      <point x="598" y="677" type="line"/>
      <point x="409" y="678" type="line"/>
      <point x="598" y="911" type="line"/>
    </contour>
  </outline>
</glyph>
<glyph name="five" format="1">
  <advance width="1157"/>
  <unicode hex="0035"/>
  <outline>
    <contour>
      <point x="458" y="-20" type="curve" smooth="yes"/>
      <point x="526" y="-20"/>
      <point x="591" y="-14"/>
      <point x="652" y="-1" type="curve" smooth="yes"/>
      <point x="713" y="12"/>
      <point x="770" y="32"/>
      <point x="823" y="60" type="curve" smooth="yes"/>
      <point x="876" y="88"/>
      <point x="922" y="122"/>
      <point x="960" y="163" type="curve" smooth="yes"/>
      <point x="998" y="204"/>
      <point x="1028" y="254"/>
      <point x="1050" y="313" type="curve" smooth="yes"/>
      <point x="1072" y="372"/>
      <point x="1083" y="438"/>
      <point x="1083" y="511" type="curve" smooth="yes"/>
      <point x="1083" y="634"/>
      <point x="1037" y="736"/>
      <point x="945" y="817" type="curve" smooth="yes"/>
      <point x="853" y="898"/>
      <point x="741" y="939"/>
      <point x="608" y="939" type="curve" smooth="yes"/>
      <point x="571" y="939"/>
      <point x="535" y="938"/>
      <point x="500" y="935" type="curve" smooth="yes"/>
      <point x="465" y="932"/>
      <point x="439" y="929"/>
      <point x="422" y="926" type="curve" smooth="yes"/>
      <point x="397" y="922" type="line"/>
      <point x="397" y="1061" type="line"/>
      <point x="1008" y="1061" type="line"/>
      <point x="1008" y="1358" type="line"/>
      <point x="92" y="1358" type="line"/>
      <point x="92" y="564" type="line"/>
      <point x="104" y="553" type="line"/>
      <point x="161" y="596"/>
      <point x="220" y="617"/>
      <point x="281" y="617" type="curve" smooth="yes"/>
      <point x="320" y="617"/>
      <point x="358" y="612"/>
      <point x="395" y="601" type="curve" smooth="yes"/>
      <point x="432" y="590"/>
      <point x="464" y="571"/>
      <point x="492" y="544" type="curve" smooth="yes"/>
      <point x="520" y="517"/>
      <point x="534" y="484"/>
      <point x="534" y="445" type="curve" smooth="yes"/>
      <point x="534" y="413"/>
      <point x="525" y="385"/>
      <point x="508" y="362" type="curve" smooth="yes"/>
      <point x="491" y="339"/>
      <point x="469" y="322"/>
      <point x="443" y="311" type="curve" smooth="yes"/>
      <point x="417" y="300"/>
      <point x="392" y="292"/>
      <point x="369" y="287" type="curve" smooth="yes"/>
      <point x="346" y="282"/>
      <point x="325" y="280"/>
      <point x="306" y="280" type="curve" smooth="yes"/>
      <point x="283" y="280"/>
      <point x="254" y="286"/>
      <point x="219" y="297" type="curve" smooth="yes"/>
      <point x="184" y="308"/>
      <point x="154" y="319"/>
      <point x="130" y="330" type="curve" smooth="yes"/>
      <point x="94" y="347" type="line"/>
      <point x="94" y="75" type="line"/>
      <point x="93" y="73" type="line"/>
      <point x="124" y="43"/>
      <point x="176" y="20"/>
      <point x="249" y="4" type="curve" smooth="yes"/>
      <point x="322" y="-12"/>
      <point x="392" y="-20"/>
    </contour>
  </outline>
</glyph>
<glyph name="six" format="1">
  <advance width="1385"/>
  <unicode hex="0036"/>
  <outline>
    <contour>
      <point x="697" y="-19" type="curve" smooth="yes"/>
      <point x="805" y="-19"/>
      <point x="906" y="5"/>
      <point x="1000" y="53" type="curve" smooth="yes"/>
      <point x="1094" y="101"/>
      <point x="1170" y="168"/>
      <point x="1228" y="255" type="curve" smooth="yes"/>
      <point x="1286" y="342"/>
      <point x="1315" y="438"/>
      <point x="1316" y="543" type="curve" smooth="yes"/>
      <point x="1317" y="684"/>
      <point x="1275" y="797"/>
      <point x="1189" y="883" type="curve" smooth="yes"/>
      <point x="1103" y="969"/>
      <point x="988" y="1016"/>
      <point x="844" y="1023" type="curve"/>
      <point x="851" y="1041"/>
      <point x="879" y="1076"/>
      <point x="927" y="1128" type="curve" smooth="yes"/>
      <point x="975" y="1180"/>
      <point x="1023" y="1229"/>
      <point x="1070" y="1275" type="curve" smooth="yes"/>
      <point x="1117" y="1321"/>
      <point x="1140" y="1344"/>
      <point x="1140" y="1345" type="curve"/>
      <point x="604" y="1345" type="line"/>
      <point x="599" y="1346" type="line"/>
      <point x="590" y="1337"/>
      <point x="572" y="1319"/>
      <point x="545" y="1293" type="curve" smooth="yes"/>
      <point x="518" y="1267"/>
      <point x="496" y="1246"/>
      <point x="480" y="1230" type="curve" smooth="yes"/>
      <point x="464" y="1214"/>
      <point x="441" y="1191"/>
      <point x="412" y="1161" type="curve" smooth="yes"/>
      <point x="383" y="1131"/>
      <point x="359" y="1105"/>
      <point x="340" y="1083" type="curve" smooth="yes"/>
      <point x="321" y="1061"/>
      <point x="298" y="1034"/>
      <point x="272" y="1002" type="curve" smooth="yes"/>
      <point x="246" y="970"/>
      <point x="224" y="941"/>
      <point x="207" y="914" type="curve" smooth="yes"/>
      <point x="190" y="887"/>
      <point x="172" y="857"/>
      <point x="153" y="823" type="curve" smooth="yes"/>
      <point x="134" y="789"/>
      <point x="119" y="757"/>
      <point x="108" y="727" type="curve" smooth="yes"/>
      <point x="97" y="697"/>
      <point x="88" y="665"/>
      <point x="81" y="632" type="curve" smooth="yes"/>
      <point x="74" y="599"/>
      <point x="70" y="566"/>
      <point x="70" y="534" type="curve" smooth="yes"/>
      <point x="70" y="425"/>
      <point x="98" y="328"/>
      <point x="154" y="243" type="curve" smooth="yes"/>
      <point x="210" y="158"/>
      <point x="286" y="93"/>
      <point x="381" y="48" type="curve" smooth="yes"/>
      <point x="476" y="3"/>
      <point x="581" y="-19"/>
    </contour>
    <contour>
      <point x="686" y="329" type="curve" smooth="yes"/>
      <point x="663" y="329"/>
      <point x="644" y="337"/>
      <point x="629" y="353" type="curve" smooth="yes"/>
      <point x="614" y="369"/>
      <point x="603" y="390"/>
      <point x="597" y="416" type="curve" smooth="yes"/>
      <point x="591" y="442"/>
      <point x="587" y="466"/>
      <point x="585" y="487" type="curve" smooth="yes"/>
      <point x="583" y="508"/>
      <point x="582" y="529"/>
      <point x="582" y="551" type="curve" smooth="yes"/>
      <point x="582" y="576"/>
      <point x="582" y="597"/>
      <point x="583" y="613" type="curve" smooth="yes"/>
      <point x="584" y="629"/>
      <point x="587" y="648"/>
      <point x="591" y="671" type="curve" smooth="yes"/>
      <point x="595" y="694"/>
      <point x="601" y="712"/>
      <point x="609" y="725" type="curve" smooth="yes"/>
      <point x="617" y="738"/>
      <point x="629" y="750"/>
      <point x="644" y="760" type="curve" smooth="yes"/>
      <point x="659" y="770"/>
      <point x="678" y="775"/>
      <point x="700" y="776" type="curve" smooth="yes"/>
      <point x="720" y="776"/>
      <point x="737" y="770"/>
      <point x="751" y="757" type="curve" smooth="yes"/>
      <point x="765" y="744"/>
      <point x="775" y="730"/>
      <point x="781" y="715" type="curve" smooth="yes"/>
      <point x="787" y="700"/>
      <point x="792" y="679"/>
      <point x="796" y="653" type="curve" smooth="yes"/>
      <point x="800" y="627"/>
      <point x="802" y="608"/>
      <point x="802" y="596" type="curve" smooth="yes"/>
      <point x="802" y="546" type="line" smooth="yes"/>
      <point x="802" y="401"/>
      <point x="763" y="329"/>
    </contour>
  </outline>
</glyph>
<glyph name="seven" format="1">
  <advance width="1283"/>
  <unicode hex="0037"/>
  <outline>
    <contour>
      <point x="156" y="0" type="line"/>
      <point x="688" y="0" type="line"/>
      <point x="1214" y="1067" type="line"/>
      <point x="1214" y="1337" type="line"/>
      <point x="71" y="1337" type="line"/>
      <point x="71" y="878" type="line"/>
      <point x="289" y="877" type="line"/>
      <point x="289" y="934"/>
      <point x="299" y="972"/>
      <point x="320" y="991" type="curve" smooth="yes"/>
      <point x="341" y="1010"/>
      <point x="374" y="1020"/>
      <point x="420" y="1020" type="curve" smooth="yes"/>
      <point x="661" y="1020" type="line"/>
    </contour>
  </outline>
</glyph>
<glyph name="eight" format="1">
  <advance width="1346"/>
  <unicode hex="0038"/>
  <outline>
    <contour>
      <point x="675" y="-18" type="curve" smooth="yes"/>
      <point x="729" y="-18"/>
      <point x="781" y="-15"/>
      <point x="831" y="-9" type="curve" smooth="yes"/>
      <point x="881" y="-3"/>
      <point x="934" y="9"/>
      <point x="990" y="27" type="curve" smooth="yes"/>
      <point x="1046" y="45"/>
      <point x="1094" y="68"/>
      <point x="1134" y="96" type="curve" smooth="yes"/>
      <point x="1174" y="124"/>
      <point x="1207" y="162"/>
      <point x="1234" y="210" type="curve" smooth="yes"/>
      <point x="1261" y="258"/>
      <point x="1274" y="313"/>
      <point x="1274" y="375" type="curve" smooth="yes"/>
      <point x="1274" y="545"/>
      <point x="1187" y="663"/>
      <point x="1013" y="730" type="curve"/>
      <point x="1071" y="752"/>
      <point x="1116" y="788"/>
      <point x="1148" y="837" type="curve" smooth="yes"/>
      <point x="1180" y="886"/>
      <point x="1196" y="944"/>
      <point x="1196" y="1010" type="curve" smooth="yes"/>
      <point x="1196" y="1067"/>
      <point x="1184" y="1118"/>
      <point x="1160" y="1163" type="curve" smooth="yes"/>
      <point x="1136" y="1208"/>
      <point x="1106" y="1243"/>
      <point x="1070" y="1269" type="curve" smooth="yes"/>
      <point x="1034" y="1295"/>
      <point x="991" y="1316"/>
      <point x="942" y="1333" type="curve" smooth="yes"/>
      <point x="893" y="1350"/>
      <point x="847" y="1361"/>
      <point x="804" y="1367" type="curve" smooth="yes"/>
      <point x="761" y="1373"/>
      <point x="718" y="1376"/>
      <point x="675" y="1377" type="curve" smooth="yes"/>
      <point x="630" y="1376"/>
      <point x="586" y="1373"/>
      <point x="543" y="1367" type="curve" smooth="yes"/>
      <point x="500" y="1361"/>
      <point x="454" y="1350"/>
      <point x="405" y="1333" type="curve" smooth="yes"/>
      <point x="356" y="1316"/>
      <point x="313" y="1294"/>
      <point x="277" y="1268" type="curve" smooth="yes"/>
      <point x="241" y="1242"/>
      <point x="211" y="1206"/>
      <point x="187" y="1161" type="curve" smooth="yes"/>
      <point x="163" y="1116"/>
      <point x="151" y="1065"/>
      <point x="151" y="1008" type="curve" smooth="yes"/>
      <point x="151" y="942"/>
      <point x="167" y="884"/>
      <point x="199" y="835" type="curve" smooth="yes"/>
      <point x="231" y="786"/>
      <point x="276" y="750"/>
      <point x="334" y="728" type="curve"/>
      <point x="160" y="661"/>
      <point x="73" y="543"/>
      <point x="73" y="373" type="curve"/>
      <point x="76" y="375" type="line"/>
      <point x="76" y="313"/>
      <point x="89" y="258"/>
      <point x="116" y="210" type="curve" smooth="yes"/>
      <point x="143" y="162"/>
      <point x="176" y="124"/>
      <point x="216" y="96" type="curve" smooth="yes"/>
      <point x="256" y="68"/>
      <point x="304" y="45"/>
      <point x="360" y="27" type="curve" smooth="yes"/>
      <point x="416" y="9"/>
      <point x="469" y="-3"/>
      <point x="519" y="-9" type="curve" smooth="yes"/>
      <point x="569" y="-15"/>
      <point x="621" y="-18"/>
    </contour>
    <contour>
      <point x="679" y="824" type="curve" smooth="yes"/>
      <point x="624" y="823"/>
      <point x="597" y="876"/>
      <point x="597" y="984" type="curve"/>
      <point x="593" y="984" type="line"/>
      <point x="593" y="1003"/>
      <point x="594" y="1019"/>
      <point x="596" y="1032" type="curve" smooth="yes"/>
      <point x="598" y="1045"/>
      <point x="601" y="1059"/>
      <point x="606" y="1074" type="curve" smooth="yes"/>
      <point x="611" y="1089"/>
      <point x="619" y="1100"/>
      <point x="631" y="1108" type="curve" smooth="yes"/>
      <point x="643" y="1116"/>
      <point x="658" y="1120"/>
      <point x="677" y="1121" type="curve"/>
      <point x="693" y="1120"/>
      <point x="707" y="1116"/>
      <point x="719" y="1108" type="curve" smooth="yes"/>
      <point x="731" y="1100"/>
      <point x="739" y="1089"/>
      <point x="744" y="1074" type="curve" smooth="yes"/>
      <point x="749" y="1059"/>
      <point x="752" y="1045"/>
      <point x="754" y="1032" type="curve" smooth="yes"/>
      <point x="756" y="1019"/>
      <point x="757" y="1003"/>
      <point x="757" y="984" type="curve" smooth="yes"/>
      <point x="757" y="876"/>
      <point x="731" y="823"/>
    </contour>
    <contour>
      <point x="673" y="238" type="curve" smooth="yes"/>
      <point x="620" y="238"/>
      <point x="593" y="293"/>
      <point x="593" y="404" type="curve" smooth="yes"/>
      <point x="593" y="519"/>
      <point x="620" y="576"/>
      <point x="675" y="576" type="curve" smooth="yes"/>
      <point x="727" y="576"/>
      <point x="753" y="519"/>
      <point x="753" y="404" type="curve" smooth="yes"/>
      <point x="753" y="293"/>
      <point x="726" y="238"/>
    </contour>
  </outline>
</glyph>
<glyph name="colon" format="1">
  <advance width="629"/>
  <unicode hex="003A"/>
  <outline>
    <contour>
      <point x="308" y="-20" type="curve"/>
      <point x="310" y="-19" type="line"/>
      <point x="391" y="-19"/>
      <point x="459" y="3"/>
      <point x="514" y="48" type="curve" smooth="yes"/>
      <point x="569" y="93"/>
      <point x="596" y="154"/>
      <point x="596" y="231" type="curve" smooth="yes"/>
      <point x="596" y="306"/>
      <point x="569" y="366"/>
      <point x="516" y="410" type="curve" smooth="yes"/>
      <point x="463" y="454"/>
      <point x="394" y="476"/>
      <point x="309" y="476" type="curve" smooth="yes"/>
      <point x="228" y="476"/>
      <point x="161" y="454"/>
      <point x="109" y="410" type="curve" smooth="yes"/>
      <point x="57" y="366"/>
      <point x="31" y="306"/>
      <point x="31" y="231" type="curve" smooth="yes"/>
      <point x="31" y="154"/>
      <point x="57" y="93"/>
      <point x="110" y="48" type="curve" smooth="yes"/>
      <point x="163" y="3"/>
      <point x="229" y="-20"/>
    </contour>
    <contour>
      <point x="310" y="595" type="curve"/>
      <point x="312" y="596" type="line"/>
      <point x="393" y="596"/>
      <point x="461" y="618"/>
      <point x="516" y="663" type="curve" smooth="yes"/>
      <point x="571" y="708"/>
      <point x="598" y="769"/>
      <point x="598" y="846" type="curve" smooth="yes"/>
      <point x="598" y="921"/>
      <point x="571" y="981"/>
      <point x="518" y="1025" type="curve" smooth="yes"/>
      <point x="465" y="1069"/>
      <point x="396" y="1091"/>
      <point x="311" y="1091" type="curve" smooth="yes"/>
      <point x="230" y="1091"/>
      <point x="163" y="1069"/>
      <point x="111" y="1025" type="curve" smooth="yes"/>
      <point x="59" y="981"/>
      <point x="33" y="921"/>
      <point x="33" y="846" type="curve" smooth="yes"/>
      <point x="33" y="769"/>
      <point x="59" y="708"/>
      <point x="112" y="663" type="curve" smooth="yes"/>
      <point x="165" y="618"/>
      <point x="231" y="595"/>
    </contour>
  </outline>
</glyph>
<glyph name="less" format="1">
  <advance width="766"/>
  <unicode hex="003C"/>
  <outline>
    <contour>
      <point x="730" y="-20" type="line"/>
      <point x="730" y="445" type="line"/>
      <point x="397" y="761" type="line"/>
      <point x="730" y="1077" type="line"/>
      <point x="730" y="1542" type="line"/>
      <point x="15" y="946" type="line"/>
      <point x="15" y="576" type="line"/>
    </contour>
  </outline>
</glyph>
<glyph name="equal" format="1">
  <advance width="719"/>
  <unicode hex="003D"/>
  <outline>
    <contour>
      <point x="36" y="169" type="line"/>
      <point x="683" y="169" type="line"/>
      <point x="683" y="392" type="line"/>
      <point x="36" y="392" type="line"/>
    </contour>
    <contour>
      <point x="36" y="538" type="line"/>
      <point x="683" y="538" type="line"/>
      <point x="683" y="761" type="line"/>
      <point x="36" y="761" type="line"/>
    </contour>
  </outline>
</glyph>
<glyph name="greater" format="1">
  <advance width="766"/>
  <unicode hex="003E"/>
  <outline>
    <contour>
      <point x="36" y="-20" type="line"/>
      <point x="751" y="576" type="line"/>
      <point x="751" y="946" type="line"/>
      <point x="36" y="1542" type="line"/>
      <point x="36" y="1077" type="line"/>
      <point x="369" y="761" type="line"/>
      <point x="36" y="445" type="line"/>
    </contour>
  </outline>
</glyph>
<glyph name="question" format="1">
  <advance width="1259"/>
  <unicode hex="003F"/>
  <outline>
    <contour>
      <point x="327" y="539" type="line"/>
      <point x="674" y="539" type="line"/>
      <point x="674" y="726" type="line"/>
      <point x="715" y="740"/>
      <point x="751" y="753"/>
      <point x="782" y="765" type="curve" smooth="yes"/>
      <point x="813" y="777"/>
      <point x="849" y="793"/>
      <point x="890" y="813" type="curve" smooth="yes"/>
      <point x="931" y="833"/>
      <point x="967" y="853"/>
      <point x="997" y="873" type="curve" smooth="yes"/>
      <point x="1027" y="893"/>
      <point x="1058" y="917"/>
      <point x="1090" y="946" type="curve" smooth="yes"/>
      <point x="1122" y="975"/>
      <point x="1148" y="1005"/>
      <point x="1168" y="1036" type="curve" smooth="yes"/>
      <point x="1188" y="1067"/>
      <point x="1204" y="1103"/>
      <point x="1217" y="1144" type="curve" smooth="yes"/>
      <point x="1230" y="1185"/>
      <point x="1236" y="1228"/>
      <point x="1236" y="1273" type="curve" smooth="yes"/>
      <point x="1236" y="1361"/>
      <point x="1210" y="1440"/>
      <point x="1158" y="1511" type="curve" smooth="yes"/>
      <point x="1106" y="1582"/>
      <point x="1034" y="1637"/>
      <point x="942" y="1677" type="curve" smooth="yes"/>
      <point x="850" y="1717"/>
      <point x="748" y="1737"/>
      <point x="635" y="1737" type="curve" smooth="yes"/>
      <point x="464" y="1737"/>
      <point x="322" y="1688"/>
      <point x="209" y="1591" type="curve" smooth="yes"/>
      <point x="96" y="1494"/>
      <point x="35" y="1370"/>
      <point x="26" y="1219" type="curve"/>
      <point x="498" y="1219" type="line"/>
      <point x="505" y="1327"/>
      <point x="548" y="1381"/>
      <point x="628" y="1381" type="curve" smooth="yes"/>
      <point x="648" y="1381"/>
      <point x="665" y="1376"/>
      <point x="679" y="1366" type="curve" smooth="yes"/>
      <point x="693" y="1356"/>
      <point x="703" y="1343"/>
      <point x="709" y="1327" type="curve" smooth="yes"/>
      <point x="715" y="1311"/>
      <point x="719" y="1297"/>
      <point x="721" y="1285" type="curve" smooth="yes"/>
      <point x="723" y="1273"/>
      <point x="724" y="1261"/>
      <point x="724" y="1250" type="curve" smooth="yes"/>
      <point x="724" y="1131"/>
      <point x="592" y="1012"/>
      <point x="328" y="893" type="curve"/>
      <point x="328" y="891" type="line"/>
    </contour>
    <contour>
      <point x="505" y="-26" type="curve"/>
      <point x="507" y="-25" type="line"/>
      <point x="588" y="-25"/>
      <point x="656" y="-3"/>
      <point x="711" y="42" type="curve" smooth="yes"/>
      <point x="766" y="87"/>
      <point x="793" y="148"/>
      <point x="793" y="225" type="curve" smooth="yes"/>
      <point x="793" y="300"/>
      <point x="766" y="360"/>
      <point x="713" y="404" type="curve" smooth="yes"/>
      <point x="660" y="448"/>
      <point x="591" y="470"/>
      <point x="506" y="470" type="curve" smooth="yes"/>
      <point x="425" y="470"/>
      <point x="358" y="448"/>
      <point x="306" y="404" type="curve" smooth="yes"/>
      <point x="254" y="360"/>
      <point x="228" y="300"/>
      <point x="228" y="225" type="curve" smooth="yes"/>
      <point x="228" y="148"/>
      <point x="254" y="87"/>
      <point x="307" y="42" type="curve" smooth="yes"/>
      <point x="360" y="-3"/>
      <point x="426" y="-26"/>
    </contour>
  </outline>
</glyph>
<glyph name="B" format="1">
  <advance width="1683"/>
  <unicode hex="0042"/>
  <outline>
    <contour>
      <point x="64" y="0" type="line"/>
      <point x="960" y="0" type="line" smooth="yes"/>
      <point x="1345" y="0"/>
      <point x="1568" y="151"/>
      <point x="1568" y="424" type="curve" smooth="yes"/>
      <point x="1568" y="655"/>
      <point x="1472" y="764"/>
      <point x="1296" y="840" type="curve"/>
      <point x="1429" y="888"/>
      <point x="1541" y="1007"/>
      <point x="1541" y="1174" type="curve" smooth="yes"/>
      <point x="1541" y="1529"/>
      <point x="1261" y="1593"/>
      <point x="904" y="1593" type="curve" smooth="yes"/>
      <point x="90" y="1593" type="line"/>
      <point x="90" y="1240" type="line"/>
      <point x="256" y="1240" type="line"/>
      <point x="256" y="352" type="line"/>
      <point x="64" y="352" type="line"/>
    </contour>
    <contour>
      <point x="768" y="352" type="line"/>
      <point x="768" y="689" type="line"/>
      <point x="810" y="690"/>
      <point x="850" y="690"/>
      <point x="857" y="690" type="curve" smooth="yes"/>
      <point x="981" y="690"/>
      <point x="1056" y="645"/>
      <point x="1056" y="527" type="curve" smooth="yes"/>
      <point x="1056" y="368"/>
      <point x="938" y="352"/>
      <point x="805" y="352" type="curve" smooth="yes"/>
    </contour>
    <contour>
      <point x="768" y="951" type="line"/>
      <point x="768" y="1240" type="line"/>
      <point x="909" y="1240" type="line" smooth="yes"/>
      <point x="989" y="1240"/>
      <point x="1047" y="1185"/>
      <point x="1047" y="1101" type="curve" smooth="yes"/>
      <point x="1047" y="977"/>
      <point x="962" y="951"/>
      <point x="824" y="951" type="curve" smooth="yes"/>
    </contour>
  </outline>
</glyph>
<glyph name="D" format="1">
  <advance width="1804"/>
  <unicode hex="0044"/>
  <outline>
    <contour>
      <point x="64" y="0" type="line"/>
      <point x="799" y="0" type="line" smooth="yes"/>
      <point x="1386" y="0"/>
      <point x="1696" y="288"/>
      <point x="1696" y="796" type="curve" smooth="yes"/>
      <point x="1696" y="1325"/>
      <point x="1375" y="1592"/>
      <point x="800" y="1592" type="curve" smooth="yes"/>
      <point x="64" y="1592" type="line"/>
      <point x="64" y="1240" type="line"/>
      <point x="224" y="1240" type="line"/>
      <point x="224" y="352" type="line"/>
      <point x="64" y="352" type="line"/>
    </contour>
    <contour>
      <point x="736" y="352" type="line"/>
      <point x="736" y="1240" type="line"/>
      <point x="799" y="1240" type="line" smooth="yes"/>
      <point x="1040" y="1240"/>
      <point x="1120" y="1032"/>
      <point x="1120" y="797" type="curve" smooth="yes"/>
      <point x="1120" y="568"/>
      <point x="1038" y="352"/>
      <point x="799" y="352" type="curve" smooth="yes"/>
    </contour>
    <contour>
      <point x="876" y="1592" type="move" name="top"/>
    </contour>
    <contour>
      <point x="876" y="796" type="move" name="center"/>
    </contour>
  </outline>
</glyph>
<glyph name="E" format="1">
  <advance width="1451"/>
  <unicode hex="0045"/>
  <outline>
    <contour>
      <point x="96" y="0" type="line"/>
      <point x="1440" y="0" type="line"/>
      <point x="1440" y="677" type="line"/>
      <point x="1184" y="677" type="line"/>
      <point x="1088" y="352" type="line"/>
      <point x="800" y="352" type="line"/>
      <point x="800" y="716" type="line"/>
      <point x="1056" y="716" type="line"/>
      <point x="1056" y="978" type="line"/>
      <point x="800" y="978" type="line"/>
      <point x="800" y="1240" type="line"/>
      <point x="1088" y="1240" type="line"/>
      <point x="1184" y="959" type="line"/>
      <point x="1440" y="959" type="line"/>
      <point x="1440" y="1592" type="line"/>
      <point x="96" y="1592" type="line"/>
      <point x="96" y="1240" type="line"/>
      <point x="288" y="1240" type="line"/>
      <point x="288" y="352" type="line"/>
      <point x="96" y="352" type="line"/>
    </contour>
    <contour>
      <point x="750" y="1592" type="move" name="top"/>
    </contour>
    <contour>
      <point x="750" y="0" type="move" name="bottom"/>
    </contour>
    <contour>
      <point x="1311" y="10" type="move" name="ogonek"/>
    </contour>
  </outline>
</glyph>
<glyph name="F" format="1">
  <advance width="1434"/>
  <unicode hex="0046"/>
  <outline>
    <contour>
      <point x="96" y="0" type="line"/>
      <point x="992" y="0" type="line"/>
      <point x="992" y="352" type="line"/>
      <point x="800" y="352" type="line"/>
      <point x="800" y="683" type="line"/>
      <point x="1025" y="683" type="line"/>
      <point x="1025" y="939" type="line"/>
      <point x="800" y="939" type="line"/>
      <point x="800" y="1240" type="line"/>
      <point x="1056" y="1240" type="line"/>
      <point x="1120" y="949" type="line"/>
      <point x="1408" y="949" type="line"/>
      <point x="1408" y="1592" type="line"/>
      <point x="96" y="1592" type="line"/>
      <point x="96" y="1240" type="line"/>
      <point x="288" y="1240" type="line"/>
      <point x="288" y="352" type="line"/>
      <point x="96" y="352" type="line"/>
    </contour>
  </outline>
</glyph>
<glyph name="G" format="1">
  <advance width="1723"/>
  <unicode hex="0047"/>
  <outline>
    <contour>
      <point x="952" y="-29" type="curve" smooth="yes"/>
      <point x="1184" y="-29"/>
      <point x="1427" y="30"/>
      <point x="1632" y="140" type="curve"/>
      <point x="1632" y="855" type="line"/>
      <point x="992" y="855" type="line"/>
      <point x="992" y="558" type="line"/>
      <point x="1184" y="558" type="line"/>
      <point x="1184" y="416" type="line"/>
      <point x="1184" y="416"/>
      <point x="1092" y="378"/>
      <point x="993" y="378" type="curve" smooth="yes"/>
      <point x="780" y="378"/>
      <point x="640" y="590"/>
      <point x="640" y="801" type="curve" smooth="yes"/>
      <point x="640" y="1089"/>
      <point x="790" y="1260"/>
      <point x="987" y="1260" type="curve" smooth="yes"/>
      <point x="1099" y="1260"/>
      <point x="1248" y="1187"/>
      <point x="1291" y="1003" type="curve"/>
      <point x="1599" y="1003" type="line"/>
      <point x="1599" y="1592" type="line"/>
      <point x="1254" y="1592" type="line"/>
      <point x="1220" y="1485" type="line"/>
      <point x="1141" y="1581"/>
      <point x="992" y="1623"/>
      <point x="863" y="1623" type="curve" smooth="yes"/>
      <point x="324" y="1623"/>
      <point x="64" y="1265"/>
      <point x="64" y="792" type="curve" smooth="yes"/>
      <point x="64" y="211"/>
      <point x="488" y="-29"/>
    </contour>
    <contour>
      <point x="839" y="1592" type="move" name="top"/>
    </contour>
    <contour>
      <point x="839" y="0" type="move" name="bottom"/>
    </contour>
  </outline>
</glyph>
<glyph name="H" format="1">
  <advance width="1929"/>
  <unicode hex="0048"/>
  <outline>
    <contour>
      <point x="128" y="0" type="line"/>
      <point x="928" y="0" type="line"/>
      <point x="928" y="352" type="line"/>
      <point x="800" y="352" type="line"/>
      <point x="800" y="635" type="line"/>
      <point x="1184" y="635" type="line"/>
      <point x="1184" y="352" type="line"/>
      <point x="1056" y="352" type="line"/>
      <point x="1056" y="0" type="line"/>
      <point x="1856" y="0" type="line"/>
      <point x="1856" y="352" type="line"/>
      <point x="1696" y="352" type="line"/>
      <point x="1696" y="1240" type="line"/>
      <point x="1856" y="1240" type="line"/>
      <point x="1856" y="1592" type="line"/>
      <point x="1056" y="1592" type="line"/>
      <point x="1056" y="1240" type="line"/>
      <point x="1184" y="1240" type="line"/>
      <point x="1184" y="976" type="line"/>
      <point x="800" y="976" type="line"/>
      <point x="800" y="1240" type="line"/>
      <point x="928" y="1240" type="line"/>
      <point x="928" y="1592" type="line"/>
      <point x="128" y="1592" type="line"/>
      <point x="128" y="1240" type="line"/>
      <point x="288" y="1240" type="line"/>
      <point x="288" y="352" type="line"/>
      <point x="128" y="352" type="line"/>
    </contour>
    <contour>
      <point x="939" y="1592" type="move" name="top"/>
    </contour>
    <contour>
      <point x="939" y="796" type="move" name="center"/>
    </contour>
  </outline>
</glyph>
<glyph name="K" format="1">
  <advance width="1814"/>
  <unicode hex="004B"/>
  <outline>
    <contour>
      <point x="128" y="0" type="line"/>
      <point x="960" y="0" type="line"/>
      <point x="960" y="352" type="line"/>
      <point x="800" y="352" type="line"/>
      <point x="800" y="630" type="line"/>
      <point x="947" y="630" type="line" smooth="yes"/>
      <point x="1009" y="630"/>
      <point x="1057" y="543"/>
      <point x="1057" y="482" type="curve" smooth="yes"/>
      <point x="1057" y="307" type="line" smooth="yes"/>
      <point x="1057" y="102"/>
      <point x="1169" y="0"/>
      <point x="1393" y="0" type="curve" smooth="yes"/>
      <point x="1760" y="0" type="line"/>
      <point x="1760" y="352" type="line"/>
      <point x="1645" y="352" type="line" smooth="yes"/>
      <point x="1602" y="352"/>
      <point x="1578" y="392"/>
      <point x="1578" y="431" type="curve" smooth="yes"/>
      <point x="1578" y="592" type="line" smooth="yes"/>
      <point x="1578" y="788"/>
      <point x="1428" y="840"/>
      <point x="1232" y="840" type="curve"/>
      <point x="1232" y="854" type="line"/>
      <point x="1551" y="1240" type="line"/>
      <point x="1688" y="1240" type="line"/>
      <point x="1688" y="1592" type="line"/>
      <point x="1064" y="1592" type="line"/>
      <point x="1064" y="1240" type="line"/>
      <point x="800" y="877" type="line"/>
      <point x="800" y="1240" type="line"/>
      <point x="928" y="1240" type="line"/>
      <point x="928" y="1592" type="line"/>
      <point x="128" y="1592" type="line"/>
      <point x="128" y="1240" type="line"/>
      <point x="288" y="1240" type="line"/>
      <point x="288" y="352" type="line"/>
      <point x="128" y="352" type="line"/>
    </contour>
    <contour>
      <point x="874" y="1592" type="move" name="top"/>
    </contour>
    <contour>
      <point x="874" y="0" type="move" name="bottom"/>
    </contour>
  </outline>
</glyph>
<glyph name="L" format="1">
  <advance width="1435"/>
  <unicode hex="004C"/>
  <outline>
    <contour>
      <point x="128" y="0" type="line"/>
      <point x="1407" y="0" type="line"/>
      <point x="1407" y="709" type="line"/>
      <point x="1152" y="709" type="line"/>
      <point x="1056" y="359" type="line"/>
      <point x="800" y="359" type="line"/>
      <point x="800" y="1240" type="line"/>
      <point x="960" y="1240" type="line"/>
      <point x="960" y="1592" type="line"/>
      <point x="128" y="1592" type="line"/>
      <point x="128" y="1240" type="line"/>
      <point x="288" y="1240" type="line"/>
      <point x="288" y="359" type="line"/>
      <point x="128" y="359" type="line"/>
    </contour>
    <contour>
      <point x="680" y="1592" type="move" name="top"/>
    </contour>
    <contour>
      <point x="680" y="0" type="move" name="bottom"/>
    </contour>
  </outline>
</glyph>
<glyph name="M" format="1">
  <advance width="2371"/>
  <unicode hex="004D"/>
  <outline>
    <contour>
      <point x="64" y="0" type="line"/>
      <point x="736" y="0" type="line"/>
      <point x="736" y="352" type="line"/>
      <point x="640" y="352"/>
      <point x="576" y="352"/>
      <point x="576" y="352" type="curve"/>
      <point x="576" y="969" type="line"/>
      <point x="992" y="0" type="line"/>
      <point x="1280" y="0" type="line"/>
      <point x="1632" y="947" type="line"/>
      <point x="1632" y="352" type="line"/>
      <point x="1504" y="352" type="line"/>
      <point x="1504" y="0" type="line"/>
      <point x="2336" y="0" type="line"/>
      <point x="2336" y="352" type="line"/>
      <point x="2144" y="352" type="line"/>
      <point x="2144" y="1240" type="line"/>
      <point x="2336" y="1240" type="line"/>
      <point x="2336" y="1592" type="line"/>
      <point x="1536" y="1592" type="line"/>
      <point x="1231" y="826" type="line"/>
      <point x="921" y="1592" type="line"/>
      <point x="64" y="1592" type="line"/>
      <point x="64" y="1240" type="line"/>
      <point x="256" y="1240" type="line"/>
      <point x="256" y="352" type="line"/>
      <point x="256" y="352"/>
      <point x="177" y="352"/>
      <point x="64" y="352" type="curve"/>
    </contour>
  </outline>
</glyph>
<glyph name="N" format="1">
  <advance width="1851"/>
  <unicode hex="004E"/>
  <outline>
    <contour>
      <point x="81" y="0" type="line"/>
      <point x="718" y="0" type="line"/>
      <point x="718" y="359" type="line"/>
      <point x="606" y="360"/>
      <point x="560" y="360"/>
      <point x="560" y="360" type="curve"/>
      <point x="560" y="878" type="line"/>
      <point x="1033" y="0" type="line"/>
      <point x="1639" y="0" type="line"/>
      <point x="1639" y="1240" type="line"/>
      <point x="1797" y="1240" type="line"/>
      <point x="1797" y="1592" type="line"/>
      <point x="1160" y="1592" type="line"/>
      <point x="1160" y="1240" type="line"/>
      <point x="1318" y="1240" type="line"/>
      <point x="1318" y="647" type="line"/>
      <point x="822" y="1593" type="line"/>
      <point x="87" y="1593" type="line"/>
      <point x="87" y="1242" type="line"/>
      <point x="244" y="1242" type="line"/>
      <point x="244" y="360" type="line"/>
      <point x="244" y="360"/>
      <point x="183" y="359"/>
      <point x="81" y="359" type="curve"/>
    </contour>
    <contour>
      <point x="912" y="1592" type="move" name="top"/>
    </contour>
    <contour>
      <point x="912" y="0" type="move" name="bottom"/>
    </contour>
  </outline>
</glyph>
<glyph name="O" format="1">
  <advance width="1779"/>
  <unicode hex="004F"/>
  <outline>
    <contour>
      <point x="864" y="-29" type="curve" smooth="yes"/>
      <point x="352" y="-29"/>
      <point x="64" y="323"/>
      <point x="64" y="798" type="curve" smooth="yes"/>
      <point x="64" y="1295"/>
      <point x="352" y="1623"/>
      <point x="864" y="1623" type="curve" smooth="yes"/>
      <point x="1376" y="1623"/>
      <point x="1664" y="1295"/>
      <point x="1664" y="798" type="curve" smooth="yes"/>
      <point x="1664" y="323"/>
      <point x="1376" y="-29"/>
    </contour>
    <contour>
      <point x="864" y="1268" type="curve" smooth="yes"/>
      <point x="708" y="1268"/>
      <point x="640" y="1077"/>
      <point x="640" y="806" type="curve" smooth="yes"/>
      <point x="640" y="524"/>
      <point x="714" y="326"/>
      <point x="864" y="326" type="curve" smooth="yes"/>
      <point x="1014" y="326"/>
      <point x="1088" y="524"/>
      <point x="1088" y="806" type="curve" smooth="yes"/>
      <point x="1088" y="1077"/>
      <point x="1020" y="1268"/>
    </contour>
  </outline>
</glyph>
<glyph name="P" format="1">
  <advance width="1681"/>
  <unicode hex="0050"/>
  <outline>
    <contour>
      <point x="82" y="0" type="line"/>
      <point x="943" y="0" type="line"/>
      <point x="943" y="359" type="line"/>
      <point x="797" y="359" type="line"/>
      <point x="797" y="569" type="line"/>
      <point x="850" y="562"/>
      <point x="900" y="559"/>
      <point x="947" y="559" type="curve" smooth="yes"/>
      <point x="1372" y="559"/>
      <point x="1609" y="714"/>
      <point x="1609" y="1133" type="curve" smooth="yes"/>
      <point x="1609" y="1519"/>
      <point x="1260" y="1593"/>
      <point x="938" y="1593" type="curve" smooth="yes"/>
      <point x="87" y="1593" type="line"/>
      <point x="87" y="1240" type="line"/>
      <point x="238" y="1240" type="line"/>
      <point x="238" y="359" type="line"/>
      <point x="82" y="359" type="line"/>
    </contour>
    <contour>
      <point x="798" y="885" type="line"/>
      <point x="798" y="1240" type="line"/>
      <point x="882" y="1240" type="line" smooth="yes"/>
      <point x="992" y="1240"/>
      <point x="1066" y="1186"/>
      <point x="1066" y="1086" type="curve" smooth="yes"/>
      <point x="1066" y="952"/>
      <point x="990" y="885"/>
      <point x="839" y="885" type="curve" smooth="yes"/>
    </contour>
  </outline>
</glyph>
<glyph name="R" format="1">
  <advance width="1780"/>
  <unicode hex="0052"/>
  <outline>
    <contour>
      <point x="128" y="0" type="line"/>
      <point x="128" y="0"/>
      <point x="960" y="0"/>
      <point x="960" y="0" type="curve"/>
      <point x="960" y="352" type="line"/>
      <point x="800" y="352" type="line"/>
      <point x="800" y="683" type="line"/>
      <point x="921" y="683" type="line" smooth="yes"/>
      <point x="1074" y="683"/>
      <point x="1107" y="592"/>
      <point x="1107" y="440" type="curve" smooth="yes"/>
      <point x="1107" y="-2"/>
      <point x="1214" y="0"/>
      <point x="1471" y="0" type="curve" smooth="yes"/>
      <point x="1792" y="0" type="line"/>
      <point x="1792" y="358" type="line"/>
      <point x="1792" y="358"/>
      <point x="1568" y="358"/>
      <point x="1568" y="358" type="curve" smooth="yes"/>
      <point x="1568" y="488" type="line" smooth="yes"/>
      <point x="1568" y="646"/>
      <point x="1500" y="775"/>
      <point x="1298" y="807" type="curve"/>
      <point x="1497" y="844"/>
      <point x="1632" y="941"/>
      <point x="1632" y="1160" type="curve" smooth="yes"/>
      <point x="1632" y="1473"/>
      <point x="1477" y="1592"/>
      <point x="1150" y="1592" type="curve" smooth="yes"/>
      <point x="128" y="1592" type="line"/>
      <point x="128" y="1240" type="line"/>
      <point x="288" y="1240" type="line"/>
      <point x="288" y="352" type="line"/>
      <point x="128" y="352" type="line"/>
    </contour>
    <contour>
      <point x="800" y="909" type="line"/>
      <point x="800" y="1240" type="line"/>
      <point x="958" y="1240" type="line" smooth="yes"/>
      <point x="1071" y="1240"/>
      <point x="1152" y="1183"/>
      <point x="1152" y="1085" type="curve" smooth="yes"/>
      <point x="1152" y="949"/>
      <point x="1073" y="909"/>
      <point x="938" y="909" type="curve" smooth="yes"/>
    </contour>
    <contour>
      <point x="916" y="1592" type="move" name="top"/>
    </contour>
    <contour>
      <point x="916" y="0" type="move" name="bottom"/>
    </contour>
  </outline>
</glyph>
<glyph name="V" format="1">
  <advance width="1778"/>
  <unicode hex="0056"/>
  <outline>
    <contour>
      <point x="566" y="0" type="line"/>
      <point x="1150" y="0" type="line"/>
      <point x="1549" y="1240" type="line"/>
      <point x="1729" y="1240" type="line"/>
      <point x="1729" y="1592" type="line"/>
      <point x="1035" y="1592" type="line"/>
      <point x="1035" y="1239" type="line"/>
      <point x="1165" y="1239" type="line"/>
      <point x="990" y="517" type="line"/>
      <point x="788" y="1240" type="line"/>
      <point x="904" y="1240" type="line"/>
      <point x="904" y="1592" type="line"/>
      <point x="39" y="1592" type="line"/>
      <point x="39" y="1240" type="line"/>
      <point x="205" y="1240" type="line"/>
    </contour>
  </outline>
</glyph>
<glyph name="W" format="1">
  <advance width="2585"/>
  <unicode hex="0057"/>
  <outline>
    <contour>
      <point x="551" y="0" type="line"/>
      <point x="1088" y="0" type="line"/>
      <point x="1290" y="706" type="line"/>
      <point x="1483" y="0" type="line"/>
      <point x="2026" y="0" type="line"/>
      <point x="2367" y="1240" type="line"/>
      <point x="2536" y="1240" type="line"/>
      <point x="2536" y="1593" type="line"/>
      <point x="1875" y="1593" type="line"/>
      <point x="1875" y="1240" type="line"/>
      <point x="2015" y="1240" type="line"/>
      <point x="1860" y="703" type="line"/>
      <point x="1607" y="1593" type="line"/>
      <point x="1198" y="1593" type="line"/>
      <point x="938" y="672" type="line"/>
      <point x="779" y="1240" type="line"/>
      <point x="930" y="1240" type="line"/>
      <point x="930" y="1593" type="line"/>
      <point x="39" y="1593" type="line"/>
      <point x="39" y="1240" type="line"/>
      <point x="202" y="1240" type="line"/>
    </contour>
    <contour>
      <point x="1279" y="1592" type="move" name="top"/>
    </contour>
  </outline>
</glyph>
<glyph name="X" format="1">
  <advance width="2003"/>
  <unicode hex="0058"/>
  <outline>
    <contour>
      <point x="77" y="0" type="line"/>
      <point x="899" y="0" type="line"/>
      <point x="899" y="359" type="line"/>
      <point x="770" y="359"/>
      <point x="695" y="359"/>
      <point x="676" y="358" type="curve"/>
      <point x="882" y="614" type="line"/>
      <point x="1125" y="359" type="line"/>
      <point x="999" y="359" type="line"/>
      <point x="999" y="0" type="line"/>
      <point x="1928" y="0" type="line"/>
      <point x="1928" y="359" type="line"/>
      <point x="1776" y="359" type="line"/>
      <point x="1347" y="809" type="line"/>
      <point x="1680" y="1240" type="line"/>
      <point x="1877" y="1240" type="line"/>
      <point x="1877" y="1593" type="line"/>
      <point x="1130" y="1593" type="line"/>
      <point x="1130" y="1240" type="line"/>
      <point x="1274" y="1240" type="line"/>
      <point x="1126" y="1044" type="line"/>
      <point x="964" y="1240" type="line"/>
      <point x="1046" y="1240" type="line"/>
      <point x="1046" y="1593" type="line"/>
      <point x="128" y="1593" type="line"/>
      <point x="128" y="1240" type="line"/>
      <point x="299" y="1240" type="line"/>
      <point x="670" y="842" type="line"/>
      <point x="236" y="358" type="line"/>
      <point x="77" y="358" type="line"/>
    </contour>
  </outline>
</glyph>
<glyph name="Y" format="1">
  <advance width="1666"/>
  <unicode hex="0059"/>
  <outline>
    <contour>
      <point x="417" y="0" type="line"/>
      <point x="1286" y="0" type="line"/>
      <point x="1286" y="359" type="line"/>
      <point x="1129" y="359" type="line"/>
      <point x="1129" y="704" type="line"/>
      <point x="1438" y="1240" type="line"/>
      <point x="1617" y="1240" type="line"/>
      <point x="1617" y="1592" type="line"/>
      <point x="980" y="1592" type="line"/>
      <point x="980" y="1240" type="line"/>
      <point x="1127" y="1240" type="line"/>
      <point x="983" y="973" type="line"/>
      <point x="800" y="1240" type="line"/>
      <point x="891" y="1240" type="line"/>
      <point x="891" y="1592" type="line"/>
      <point x="39" y="1592" type="line"/>
      <point x="39" y="1240" type="line"/>
      <point x="151" y="1240" type="line"/>
      <point x="572" y="652" type="line"/>
      <point x="572" y="359" type="line"/>
      <point x="417" y="359" type="line"/>
    </contour>
    <contour>
      <point x="818" y="1592" type="move" name="top"/>
    </contour>
  </outline>
</glyph>
<glyph name="Z" format="1">
  <advance width="1588"/>
  <unicode hex="005A"/>
  <outline>
    <contour>
      <point x="94" y="0" type="line"/>
      <point x="1504" y="0" type="line"/>
      <point x="1504" y="695" type="line"/>
      <point x="1222" y="695" type="line"/>
      <point x="1115" y="359" type="line"/>
      <point x="806" y="359" type="line"/>
      <point x="1483" y="1263" type="line"/>
      <point x="1483" y="1592" type="line"/>
      <point x="89" y="1592" type="line"/>
      <point x="89" y="928" type="line"/>
      <point x="377" y="928" type="line"/>
      <point x="457" y="1240" type="line"/>
      <point x="772" y="1240" type="line"/>
      <point x="94" y="350" type="line"/>
    </contour>
    <contour>
      <point x="744" y="1592" type="move" name="top"/>
    </contour>
  </outline>
</glyph>
<glyph name="bracketleft" format="1">
  <advance width="786"/>
  <unicode hex="005B"/>
  <outline>
    <contour>
      <point x="36" y="0" type="line"/>
      <point x="745" y="0" type="line"/>
      <point x="746" y="311" type="line"/>
      <point x="553" y="311" type="line"/>
      <point x="553" y="1322" type="line"/>
      <point x="750" y="1322" type="line"/>
      <point x="750" y="1623" type="line"/>
      <point x="36" y="1623" type="line"/>
    </contour>
  </outline>
</glyph>
<glyph name="backslash" format="1">
  <advance width="947"/>
  <unicode hex="005C"/>
  <outline>
    <contour>
      <point x="358" y="0" type="line"/>
      <point x="931" y="0" type="line"/>
      <point x="590" y="1623" type="line"/>
      <point x="16" y="1623" type="line"/>
    </contour>
  </outline>
</glyph>
<glyph name="bracketright" format="1">
  <advance width="786"/>
  <unicode hex="005D"/>
  <outline>
    <contour>
      <point x="41" y="0" type="line"/>
      <point x="750" y="0" type="line"/>
      <point x="750" y="1623" type="line"/>
      <point x="36" y="1623" type="line"/>
      <point x="36" y="1322" type="line"/>
      <point x="233" y="1322" type="line"/>
      <point x="233" y="311" type="line"/>
      <point x="40" y="311" type="line"/>
    </contour>
  </outline>
</glyph>
<glyph name="asciicircum" format="1">
  <advance width="1438"/>
  <unicode hex="005E"/>
  <outline>
    <contour>
      <point x="36" y="909" type="line"/>
      <point x="501" y="909" type="line"/>
      <point x="717" y="1242" type="line"/>
      <point x="933" y="909" type="line"/>
      <point x="1398" y="909" type="line"/>
      <point x="902" y="1624" type="line"/>
      <point x="532" y="1624" type="line"/>
    </contour>
  </outline>
</glyph>
<glyph name="underscore" format="1">
  <advance width="1328"/>
  <unicode hex="005F"/>
  <outline>
    <contour>
      <point x="69" y="-224" type="line"/>
      <point x="1262" y="-224" type="line"/>
      <point x="1262" y="-1" type="line"/>
      <point x="69" y="-1" type="line"/>
    </contour>
  </outline>
</glyph>
<glyph name="grave" format="1">
  <advance width="756"/>
  <unicode hex="0060"/>
  <outline>
    <contour>
      <point x="602" y="1210" type="line"/>
      <point x="706" y="1351" type="line"/>
      <point x="232" y="1788" type="line"/>
      <point x="48" y="1523" type="line"/>
    </contour>
    <contour>
      <point x="420" y="1072" type="move"/>
    </contour>
    <contour>
      <point x="377" y="1072" type="move" name="_top"/>
    </contour>
  </outline>
</glyph>
<glyph name="c" format="1">
  <advance width="1250"/>
  <unicode hex="0063"/>
  <outline>
    <contour>
      <point x="672" y="-18" type="curve" smooth="yes"/>
      <point x="954" y="-18"/>
      <point x="1120" y="98"/>
      <point x="1120" y="98" type="curve"/>
      <point x="1120" y="377" type="line"/>
      <point x="1105" y="387" type="line"/>
      <point x="1011" y="308"/>
      <point x="882" y="280"/>
      <point x="800" y="280" type="curve" smooth="yes"/>
      <point x="700" y="280"/>
      <point x="544" y="319"/>
      <point x="544" y="545" type="curve" smooth="yes"/>
      <point x="544" y="751"/>
      <point x="618" y="799"/>
      <point x="721" y="799" type="curve" smooth="yes"/>
      <point x="796" y="799"/>
      <point x="853" y="737"/>
      <point x="864" y="628" type="curve"/>
      <point x="1152" y="628" type="line"/>
      <point x="1152" y="1072" type="line"/>
      <point x="935" y="1072" type="line"/>
      <point x="894" y="965" type="line"/>
      <point x="853" y="1061"/>
      <point x="672" y="1091"/>
      <point x="581" y="1091" type="curve" smooth="yes"/>
      <point x="265" y="1091"/>
      <point x="64" y="860"/>
      <point x="64" y="546" type="curve" smooth="yes"/>
      <point x="64" y="200"/>
      <point x="306" y="-18"/>
    </contour>
    <contour>
      <point x="597" y="1072" type="move" name="top"/>
    </contour>
    <contour>
      <point x="597" y="0" type="move" name="bottom"/>
    </contour>
  </outline>
</glyph>
<glyph name="d" format="1">
  <advance width="1514"/>
  <unicode hex="0064"/>
  <outline>
    <contour>
      <point x="537" y="-18" type="curve" smooth="yes"/>
      <point x="669" y="-17"/>
      <point x="771" y="47"/>
      <point x="832" y="128" type="curve"/>
      <point x="832" y="0" type="line"/>
      <point x="1448" y="0" type="line"/>
      <point x="1448" y="301" type="line"/>
      <point x="1320" y="301" type="line"/>
      <point x="1320" y="1560" type="line"/>
      <point x="680" y="1495" type="line"/>
      <point x="680" y="1222" type="line"/>
      <point x="840" y="1222" type="line"/>
      <point x="840" y="960" type="line"/>
      <point x="761" y="1040"/>
      <point x="673" y="1091"/>
      <point x="529" y="1091" type="curve" smooth="yes"/>
      <point x="242" y="1091"/>
      <point x="72" y="835"/>
      <point x="72" y="550" type="curve" smooth="yes"/>
      <point x="72" y="246"/>
      <point x="233" y="-18"/>
    </contour>
    <contour>
      <point x="697" y="274" type="curve" smooth="yes"/>
      <point x="575" y="274"/>
      <point x="520" y="396"/>
      <point x="520" y="551" type="curve" smooth="yes"/>
      <point x="520" y="718"/>
      <point x="597" y="799"/>
      <point x="697" y="799" type="curve" smooth="yes"/>
      <point x="757" y="799"/>
      <point x="813" y="760"/>
      <point x="840" y="729" type="curve"/>
      <point x="840" y="350" type="line"/>
      <point x="818" y="315"/>
      <point x="765" y="274"/>
    </contour>
    <contour>
      <point x="714" y="536" type="move" name="center"/>
    </contour>
  </outline>
</glyph>
<glyph name="e" format="1">
  <advance width="1276"/>
  <unicode hex="0065"/>
  <outline>
    <contour>
      <point x="672" y="-18" type="curve" smooth="yes"/>
      <point x="907" y="-18"/>
      <point x="1035" y="33"/>
      <point x="1152" y="101" type="curve"/>
      <point x="1152" y="368" type="line"/>
      <point x="1137" y="375" type="line"/>
      <point x="1009" y="298"/>
      <point x="882" y="267"/>
      <point x="786" y="267" type="curve" smooth="yes"/>
      <point x="658" y="267"/>
      <point x="544" y="342"/>
      <point x="544" y="473" type="curve"/>
      <point x="1168" y="473" type="line"/>
      <point x="1168" y="473"/>
      <point x="1184" y="531"/>
      <point x="1184" y="576" type="curve" smooth="yes"/>
      <point x="1184" y="891"/>
      <point x="966" y="1091"/>
      <point x="640" y="1091" type="curve" smooth="yes"/>
      <point x="290" y="1091"/>
      <point x="64" y="881"/>
      <point x="64" y="542" type="curve" smooth="yes"/>
      <point x="64" y="201"/>
      <point x="297" y="-18"/>
    </contour>
    <contour>
      <point x="800" y="649" type="line"/>
      <point x="544" y="649" type="line"/>
      <point x="544" y="678" type="line" smooth="yes"/>
      <point x="544" y="754"/>
      <point x="597" y="843"/>
      <point x="672" y="843" type="curve" smooth="yes"/>
      <point x="761" y="843"/>
      <point x="800" y="758"/>
      <point x="800" y="670" type="curve" smooth="yes"/>
    </contour>
    <contour>
      <point x="605" y="1072" type="move" name="top"/>
    </contour>
    <contour>
      <point x="605" y="0" type="move" name="bottom"/>
    </contour>
    <contour>
      <point x="1097" y="10" type="move" name="ogonek"/>
    </contour>
  </outline>
</glyph>
<glyph name="g" format="1">
  <advance width="1490"/>
  <unicode hex="0067"/>
  <outline>
    <contour>
      <point x="655" y="-390" type="curve" smooth="yes"/>
      <point x="1042" y="-390"/>
      <point x="1323" y="-226"/>
      <point x="1323" y="135" type="curve" smooth="yes"/>
      <point x="1323" y="761" type="line"/>
      <point x="1419" y="761" type="line"/>
      <point x="1419" y="1072" type="line"/>
      <point x="909" y="1072" type="line"/>
      <point x="838" y="922" type="line"/>
      <point x="781" y="1003"/>
      <point x="681" y="1091"/>
      <point x="523" y="1091" type="curve" smooth="yes"/>
      <point x="227" y="1091"/>
      <point x="75" y="839"/>
      <point x="75" y="541" type="curve" smooth="yes"/>
      <point x="75" y="252"/>
      <point x="222" y="0"/>
      <point x="523" y="0" type="curve" smooth="yes"/>
      <point x="669" y="0"/>
      <point x="776" y="61"/>
      <point x="838" y="117" type="curve"/>
      <point x="837" y="-68"/>
      <point x="730" y="-122"/>
      <point x="596" y="-122" type="curve" smooth="yes"/>
      <point x="467" y="-122"/>
      <point x="312" y="-71"/>
      <point x="205" y="-39" type="curve"/>
      <point x="205" y="-328" type="line"/>
      <point x="363" y="-369"/>
      <point x="516" y="-390"/>
    </contour>
    <contour>
      <point x="711" y="274" type="curve" smooth="yes"/>
      <point x="585" y="274"/>
      <point x="523" y="382"/>
      <point x="523" y="535" type="curve" smooth="yes"/>
      <point x="523" y="699"/>
      <point x="594" y="799"/>
      <point x="703" y="799" type="curve" smooth="yes"/>
      <point x="773" y="799"/>
      <point x="820" y="767"/>
      <point x="843" y="725" type="curve"/>
      <point x="843" y="360" type="line"/>
      <point x="833" y="325"/>
      <point x="778" y="274"/>
    </contour>
    <contour>
      <point x="712" y="1072" type="move" name="top"/>
    </contour>
  </outline>
</glyph>
<glyph name="h" format="1">
  <advance width="1552"/>
  <unicode hex="0068"/>
  <outline>
    <contour>
      <point x="96" y="0" type="line"/>
      <point x="800" y="0" type="line"/>
      <point x="800" y="301" type="line"/>
      <point x="704" y="301" type="line"/>
      <point x="704" y="661" type="line" smooth="yes"/>
      <point x="704" y="740"/>
      <point x="746" y="790"/>
      <point x="813" y="790" type="curve" smooth="yes"/>
      <point x="868" y="790"/>
      <point x="928" y="737"/>
      <point x="928" y="654" type="curve" smooth="yes"/>
      <point x="928" y="0" type="line"/>
      <point x="1536" y="0" type="line"/>
      <point x="1536" y="301" type="line"/>
      <point x="1408" y="301" type="line"/>
      <point x="1408" y="702" type="line" smooth="yes"/>
      <point x="1408" y="944"/>
      <point x="1293" y="1091"/>
      <point x="1057" y="1091" type="curve" smooth="yes"/>
      <point x="891" y="1091"/>
      <point x="753" y="1004"/>
      <point x="704" y="916" type="curve"/>
      <point x="704" y="1560" type="line"/>
      <point x="96" y="1495" type="line"/>
      <point x="96" y="1222" type="line"/>
      <point x="224" y="1222" type="line"/>
      <point x="224" y="301" type="line"/>
      <point x="96" y="301" type="line"/>
    </contour>
    <contour>
      <point x="751" y="1072" type="move" name="top"/>
    </contour>
    <contour>
      <point x="751" y="536" type="move" name="center"/>
    </contour>
  </outline>
</glyph>
<glyph name="i" format="1">
  <advance width="889"/>
  <unicode hex="0069"/>
  <outline>
    <contour>
      <point x="87" y="0" type="line"/>
      <point x="823" y="0" type="line"/>
      <point x="823" y="301" type="line"/>
      <point x="695" y="301" type="line"/>
      <point x="695" y="1072" type="line"/>
      <point x="87" y="1008" type="line"/>
      <point x="87" y="761" type="line"/>
      <point x="215" y="761" type="line"/>
      <point x="215" y="301" type="line"/>
      <point x="87" y="301" type="line"/>
    </contour>
    <contour>
      <point x="407" y="1175" type="curve" smooth="yes"/>
      <point x="565" y="1175"/>
      <point x="695" y="1249"/>
      <point x="695" y="1405" type="curve" smooth="yes"/>
      <point x="695" y="1562"/>
      <point x="569" y="1630"/>
      <point x="408" y="1630" type="curve" smooth="yes"/>
      <point x="251" y="1630"/>
      <point x="119" y="1560"/>
      <point x="119" y="1405" type="curve" smooth="yes"/>
      <point x="119" y="1250"/>
      <point x="252" y="1175"/>
    </contour>
  </outline>
</glyph>
<glyph name="k" format="1">
  <advance width="1509"/>
  <unicode hex="006B"/>
  <outline>
    <contour>
      <point x="705" y="438" type="line"/>
      <point x="998" y="0" type="line"/>
      <point x="1474" y="0" type="line"/>
      <point x="1474" y="301" type="line"/>
      <point x="1316" y="301" type="line"/>
      <point x="1109" y="618" type="line"/>
      <point x="1110" y="618"/>
      <point x="1282" y="762"/>
      <point x="1282" y="761" type="curve"/>
      <point x="1442" y="761" type="line"/>
      <point x="1442" y="1072" type="line"/>
      <point x="802" y="1072" type="line"/>
      <point x="802" y="761" type="line"/>
      <point x="914" y="761" type="line"/>
      <point x="705" y="587" type="line"/>
    </contour>
    <component base="lc_tall_stem_2"/>
    <contour>
      <point x="724" y="0" type="move" name="bottom"/>
    </contour>
  </outline>
</glyph>
<glyph name="n" format="1">
  <advance width="1579"/>
  <unicode hex="006E"/>
  <outline>
    <component base="lc_xheight_stem" xOffset="1"/>
    <component base="lc_xheight_curved_stem" xOffset="1"/>
    <contour>
      <point x="737" y="1072" type="move" name="top"/>
    </contour>
    <contour>
      <point x="737" y="0" type="move" name="bottom"/>
    </contour>
  </outline>
</glyph>
<glyph name="p" format="1">
  <advance width="1511"/>
  <unicode hex="0070"/>
  <outline>
    <contour>
      <point x="64" y="-398" type="line"/>
      <point x="800" y="-398" type="line"/>
      <point x="800" y="-96" type="line"/>
      <point x="672" y="-96" type="line"/>
      <point x="672" y="119" type="line"/>
      <point x="734" y="53"/>
      <point x="845" y="-18"/>
      <point x="991" y="-18" type="curve" smooth="yes"/>
      <point x="1292" y="-18"/>
      <point x="1440" y="242"/>
      <point x="1440" y="541" type="curve" smooth="yes"/>
      <point x="1440" y="839"/>
      <point x="1289" y="1092"/>
      <point x="993" y="1092" type="curve" smooth="yes"/>
      <point x="835" y="1092"/>
      <point x="729" y="1003"/>
      <point x="672" y="922" type="curve"/>
      <point x="672" y="1091" type="line"/>
      <point x="64" y="1030" type="line"/>
      <point x="64" y="761" type="line"/>
      <point x="192" y="761" type="line"/>
      <point x="192" y="-94" type="line"/>
      <point x="64" y="-94" type="line"/>
    </contour>
    <contour>
      <point x="816" y="274" type="curve" smooth="yes"/>
      <point x="749" y="274"/>
      <point x="701" y="306"/>
      <point x="672" y="360" type="curve"/>
      <point x="672" y="707" type="line"/>
      <point x="695" y="761"/>
      <point x="752" y="799"/>
      <point x="822" y="799" type="curve" smooth="yes"/>
      <point x="921" y="799"/>
      <point x="992" y="699"/>
      <point x="992" y="535" type="curve" smooth="yes"/>
      <point x="992" y="391"/>
      <point x="942" y="274"/>
    </contour>
  </outline>
</glyph>
<glyph name="q" format="1">
  <advance width="1515"/>
  <unicode hex="0071"/>
  <outline>
    <contour>
      <point x="730" y="-398" type="line"/>
      <point x="1446" y="-398" type="line"/>
      <point x="1446" y="-94" type="line"/>
      <point x="1328" y="-94" type="line"/>
      <point x="1328" y="761" type="line"/>
      <point x="1422" y="761" type="line"/>
      <point x="1422" y="1072" type="line"/>
      <point x="914" y="1072" type="line"/>
      <point x="841" y="922" type="line"/>
      <point x="784" y="1003"/>
      <point x="685" y="1091"/>
      <point x="527" y="1091" type="curve" smooth="yes"/>
      <point x="231" y="1091"/>
      <point x="75" y="839"/>
      <point x="75" y="541" type="curve" smooth="yes"/>
      <point x="75" y="242"/>
      <point x="228" y="-18"/>
      <point x="529" y="-18" type="curve" smooth="yes"/>
      <point x="675" y="-18"/>
      <point x="779" y="53"/>
      <point x="841" y="119" type="curve"/>
      <point x="841" y="-96" type="line"/>
      <point x="730" y="-96" type="line"/>
    </contour>
    <contour>
      <point x="713" y="294" type="curve" smooth="yes"/>
      <point x="587" y="294"/>
      <point x="547" y="405"/>
      <point x="546" y="535" type="curve" smooth="yes"/>
      <point x="546" y="699"/>
      <point x="600" y="779"/>
      <point x="709" y="779" type="curve" smooth="yes"/>
      <point x="779" y="779"/>
      <point x="828" y="739"/>
      <point x="841" y="685" type="curve"/>
      <point x="841" y="390" type="line" smooth="yes"/>
      <point x="841" y="335"/>
      <point x="780" y="294"/>
    </contour>
  </outline>
</glyph>
<glyph name="r" format="1">
  <advance width="1072"/>
  <unicode hex="0072"/>
  <outline>
    <contour>
      <point x="64" y="0" type="line"/>
      <point x="832" y="0" type="line"/>
      <point x="832" y="301" type="line"/>
      <point x="672" y="301" type="line"/>
      <point x="672" y="506" type="line" smooth="yes"/>
      <point x="672" y="600"/>
      <point x="688" y="707"/>
      <point x="832" y="707" type="curve" smooth="yes"/>
      <point x="880" y="707"/>
      <point x="944" y="695"/>
      <point x="1024" y="667" type="curve"/>
      <point x="1024" y="1091" type="line"/>
      <point x="924" y="1091"/>
      <point x="739" y="1026"/>
      <point x="672" y="917" type="curve"/>
      <point x="672" y="1092" type="line"/>
      <point x="64" y="1032" type="line"/>
      <point x="64" y="761" type="line"/>
      <point x="192" y="761" type="line"/>
      <point x="192" y="301" type="line"/>
      <point x="64" y="301" type="line"/>
    </contour>
    <contour>
      <point x="490" y="1072" type="move" name="top"/>
    </contour>
    <contour>
      <point x="490" y="0" type="move" name="bottom"/>
    </contour>
  </outline>
</glyph>
<glyph name="u" format="1">
  <advance width="1538"/>
  <unicode hex="0075"/>
  <outline>
    <contour>
      <point x="515" y="-18" type="curve" smooth="yes"/>
      <point x="683" y="-18"/>
      <point x="796" y="51"/>
      <point x="864" y="156" type="curve"/>
      <point x="864" y="0" type="line"/>
      <point x="1472" y="0" type="line"/>
      <point x="1472" y="301" type="line"/>
      <point x="1344" y="301" type="line"/>
      <point x="1344" y="1092" type="line"/>
      <point x="768" y="1032" type="line"/>
      <point x="768" y="761" type="line"/>
      <point x="864" y="761" type="line"/>
      <point x="864" y="388" type="line" smooth="yes"/>
      <point x="864" y="329"/>
      <point x="831" y="280"/>
      <point x="768" y="280" type="curve" smooth="yes"/>
      <point x="712" y="280"/>
      <point x="672" y="336"/>
      <point x="672" y="386" type="curve" smooth="yes"/>
      <point x="672" y="1092" type="line"/>
      <point x="64" y="1032" type="line"/>
      <point x="64" y="761" type="line"/>
      <point x="192" y="761" type="line"/>
      <point x="192" y="385" type="line" smooth="yes"/>
      <point x="192" y="116"/>
      <point x="302" y="-18"/>
    </contour>
    <contour>
      <point x="743" y="1072" type="move" name="top"/>
    </contour>
    <contour>
      <point x="1329" y="10" type="move" name="ogonek"/>
    </contour>
  </outline>
</glyph>
<glyph name="w" format="1">
  <advance width="2061"/>
  <unicode hex="0077"/>
  <outline>
    <contour>
      <point x="435" y="0" type="line"/>
      <point x="879" y="0" type="line"/>
      <point x="1030" y="430" type="line"/>
      <point x="1160" y="0" type="line"/>
      <point x="1635" y="0" type="line"/>
      <point x="1861" y="761" type="line"/>
      <point x="1996" y="761" type="line"/>
      <point x="1996" y="1072" type="line"/>
      <point x="1446" y="1072" type="line"/>
      <point x="1446" y="761" type="line"/>
      <point x="1564" y="761" type="line"/>
      <point x="1465" y="379" type="line"/>
      <point x="1247" y="1072" type="line"/>
      <point x="981" y="1072" type="line"/>
      <point x="771" y="392" type="line"/>
      <point x="678" y="761" type="line"/>
      <point x="772" y="761" type="line"/>
      <point x="772" y="1072" type="line"/>
      <point x="64" y="1072" type="line"/>
      <point x="64" y="761" type="line"/>
      <point x="197" y="761" type="line"/>
    </contour>
    <contour>
      <point x="999" y="1072" type="move" name="top"/>
    </contour>
  </outline>
</glyph>
<glyph name="bar" format="1">
  <advance width="467"/>
  <unicode hex="007C"/>
  <outline>
    <contour>
      <point x="36" y="0" type="line"/>
      <point x="431" y="0" type="line"/>
      <point x="431" y="1623" type="line"/>
      <point x="36" y="1623" type="line"/>
    </contour>
  </outline>
</glyph>
<glyph name="brokenbar" format="1">
  <advance width="544"/>
  <unicode hex="00A6"/>
  <outline>
    <contour>
      <point x="74" y="0" type="line"/>
      <point x="469" y="0" type="line"/>
      <point x="469" y="721" type="line"/>
      <point x="74" y="721" type="line"/>
    </contour>
    <contour>
      <point x="74" y="902" type="line"/>
      <point x="469" y="902" type="line"/>
      <point x="469" y="1623" type="line"/>
      <point x="74" y="1623" type="line"/>
    </contour>
  </outline>
</glyph>
<glyph name="logicalnot" format="1">
  <advance width="1137"/>
  <unicode hex="00AC"/>
  <outline>
    <contour>
      <point x="836" y="542" type="line"/>
      <point x="1067" y="542" type="line"/>
      <point x="1067" y="1092" type="line"/>
      <point x="56" y="1092" type="line"/>
      <point x="57" y="761" type="line"/>
      <point x="836" y="761" type="line"/>
    </contour>
  </outline>
</glyph>
<glyph name="uni00AD" format="1">
  <advance width="778"/>
  <unicode hex="00AD"/>
  <outline>
    <contour>
      <point x="66" y="537" type="line"/>
      <point x="713" y="537" type="line"/>
      <point x="713" y="836" type="line"/>
      <point x="66" y="836" type="line"/>
    </contour>
  </outline>
</glyph>
<glyph name="degree" format="1">
  <advance width="808"/>
  <unicode hex="00B0"/>
  <outline>
    <contour>
      <point x="396" y="949" type="curve"/>
      <point x="394" y="953" type="line"/>
      <point x="452" y="953"/>
      <point x="505" y="963"/>
      <point x="552" y="983" type="curve" smooth="yes"/>
      <point x="599" y="1003"/>
      <point x="637" y="1029"/>
      <point x="667" y="1062" type="curve" smooth="yes"/>
      <point x="697" y="1095"/>
      <point x="720" y="1132"/>
      <point x="736" y="1173" type="curve" smooth="yes"/>
      <point x="752" y="1214"/>
      <point x="760" y="1256"/>
      <point x="760" y="1300" type="curve" smooth="yes"/>
      <point x="760" y="1343"/>
      <point x="752" y="1384"/>
      <point x="736" y="1423" type="curve" smooth="yes"/>
      <point x="720" y="1462"/>
      <point x="697" y="1498"/>
      <point x="668" y="1530" type="curve" smooth="yes"/>
      <point x="639" y="1562"/>
      <point x="601" y="1587"/>
      <point x="554" y="1606" type="curve" smooth="yes"/>
      <point x="507" y="1625"/>
      <point x="454" y="1634"/>
      <point x="395" y="1634" type="curve" smooth="yes"/>
      <point x="338" y="1634"/>
      <point x="287" y="1624"/>
      <point x="241" y="1605" type="curve" smooth="yes"/>
      <point x="195" y="1586"/>
      <point x="158" y="1560"/>
      <point x="130" y="1528" type="curve" smooth="yes"/>
      <point x="102" y="1496"/>
      <point x="80" y="1460"/>
      <point x="65" y="1420" type="curve" smooth="yes"/>
      <point x="50" y="1380"/>
      <point x="42" y="1339"/>
      <point x="42" y="1296" type="curve" smooth="yes"/>
      <point x="42" y="1252"/>
      <point x="50" y="1210"/>
      <point x="65" y="1169" type="curve" smooth="yes"/>
      <point x="80" y="1128"/>
      <point x="102" y="1091"/>
      <point x="131" y="1058" type="curve" smooth="yes"/>
      <point x="160" y="1025"/>
      <point x="197" y="999"/>
      <point x="243" y="979" type="curve" smooth="yes"/>
      <point x="289" y="959"/>
      <point x="340" y="949"/>
    </contour>
    <contour>
      <point x="396" y="1092" type="line"/>
      <point x="334" y="1092"/>
      <point x="285" y="1112"/>
      <point x="249" y="1153" type="curve" smooth="yes"/>
      <point x="213" y="1194"/>
      <point x="195" y="1242"/>
      <point x="195" y="1297" type="curve" smooth="yes"/>
      <point x="195" y="1351"/>
      <point x="213" y="1398"/>
      <point x="248" y="1437" type="curve" smooth="yes"/>
      <point x="283" y="1476"/>
      <point x="332" y="1496"/>
      <point x="395" y="1496" type="curve" smooth="yes"/>
      <point x="460" y="1496"/>
      <point x="511" y="1476"/>
      <point x="548" y="1437" type="curve" smooth="yes"/>
      <point x="585" y="1398"/>
      <point x="603" y="1351"/>
      <point x="603" y="1297" type="curve" smooth="yes"/>
      <point x="603" y="1242"/>
      <point x="584" y="1194"/>
      <point x="547" y="1154" type="curve" smooth="yes"/>
      <point x="510" y="1114"/>
      <point x="459" y="1094"/>
      <point x="394" y="1094" type="curve"/>
    </contour>
  </outline>
</glyph>
<glyph name="threesuperior" format="1">
  <advance width="820"/>
  <unicode hex="00B3"/>
  <outline>
    <contour>
      <point x="370" y="270" type="curve" smooth="yes"/>
      <point x="308" y="270"/>
      <point x="255" y="274"/>
      <point x="211" y="281" type="curve" smooth="yes"/>
      <point x="167" y="288"/>
      <point x="127" y="303"/>
      <point x="92" y="326" type="curve"/>
      <point x="92" y="529" type="line"/>
      <point x="91" y="527" type="line"/>
      <point x="162" y="470"/>
      <point x="234" y="441"/>
      <point x="308" y="441" type="curve" smooth="yes"/>
      <point x="342" y="441"/>
      <point x="372" y="448"/>
      <point x="399" y="462" type="curve" smooth="yes"/>
      <point x="426" y="476"/>
      <point x="439" y="498"/>
      <point x="439" y="528" type="curve" smooth="yes"/>
      <point x="439" y="563"/>
      <point x="424" y="588"/>
      <point x="395" y="603" type="curve" smooth="yes"/>
      <point x="366" y="618"/>
      <point x="332" y="626"/>
      <point x="293" y="626" type="curve" smooth="yes"/>
      <point x="278" y="626"/>
      <point x="262" y="624"/>
      <point x="246" y="620" type="curve" smooth="yes"/>
      <point x="230" y="616"/>
      <point x="221" y="614"/>
      <point x="218" y="614" type="curve"/>
      <point x="207" y="616" type="line"/>
      <point x="206" y="619" type="line"/>
      <point x="206" y="712" type="line"/>
      <point x="406" y="882" type="line"/>
      <point x="406" y="888" type="line"/>
      <point x="278" y="888" type="line" smooth="yes"/>
      <point x="263" y="888"/>
      <point x="251" y="887"/>
      <point x="242" y="884" type="curve" smooth="yes"/>
      <point x="233" y="881"/>
      <point x="226" y="875"/>
      <point x="220" y="865" type="curve" smooth="yes"/>
      <point x="214" y="855"/>
      <point x="210" y="847"/>
      <point x="208" y="841" type="curve" smooth="yes"/>
      <point x="206" y="835"/>
      <point x="203" y="823"/>
      <point x="198" y="805" type="curve"/>
      <point x="85" y="806" type="line"/>
      <point x="85" y="1071" type="line"/>
      <point x="711" y="1071" type="line"/>
      <point x="711" y="917" type="line" smooth="yes"/>
      <point x="711" y="916"/>
      <point x="655" y="870"/>
      <point x="544" y="779" type="curve"/>
      <point x="601" y="774"/>
      <point x="650" y="750"/>
      <point x="690" y="706" type="curve" smooth="yes"/>
      <point x="730" y="662"/>
      <point x="750" y="613"/>
      <point x="750" y="558" type="curve" smooth="yes"/>
      <point x="750" y="466"/>
      <point x="716" y="395"/>
      <point x="648" y="345" type="curve" smooth="yes"/>
      <point x="580" y="295"/>
      <point x="487" y="270"/>
    </contour>
  </outline>
</glyph>
<glyph name="paragraph" format="1">
  <advance width="1461"/>
  <unicode hex="00B6"/>
  <outline>
    <contour>
      <point x="461" y="0" type="line"/>
      <point x="878" y="0" type="line"/>
      <point x="878" y="1270" type="line"/>
      <point x="1003" y="1270" type="line"/>
      <point x="1003" y="0" type="line"/>
      <point x="1412" y="0" type="line"/>
      <point x="1412" y="363" type="line"/>
      <point x="1256" y="363" type="line"/>
      <point x="1256" y="1268" type="line"/>
      <point x="1407" y="1268" type="line"/>
      <point x="1407" y="1623" type="line"/>
      <point x="906" y="1623" type="line"/>
      <point x="840" y="1623" type="line"/>
      <point x="796" y="1622"/>
      <point x="752" y="1622"/>
      <point x="709" y="1623" type="curve" smooth="yes"/>
      <point x="666" y="1624"/>
      <point x="623" y="1623"/>
      <point x="581" y="1620" type="curve" smooth="yes"/>
      <point x="539" y="1617"/>
      <point x="498" y="1613"/>
      <point x="459" y="1609" type="curve" smooth="yes"/>
      <point x="420" y="1605"/>
      <point x="382" y="1597"/>
      <point x="346" y="1586" type="curve" smooth="yes"/>
      <point x="310" y="1575"/>
      <point x="277" y="1562"/>
      <point x="246" y="1548" type="curve" smooth="yes"/>
      <point x="215" y="1534"/>
      <point x="187" y="1515"/>
      <point x="162" y="1491" type="curve" smooth="yes"/>
      <point x="137" y="1467"/>
      <point x="115" y="1440"/>
      <point x="97" y="1410" type="curve" smooth="yes"/>
      <point x="79" y="1380"/>
      <point x="65" y="1344"/>
      <point x="55" y="1303" type="curve" smooth="yes"/>
      <point x="45" y="1262"/>
      <point x="39" y="1216"/>
      <point x="38" y="1166" type="curve" smooth="yes"/>
      <point x="37" y="1088"/>
      <point x="50" y="1021"/>
      <point x="77" y="965" type="curve" smooth="yes"/>
      <point x="104" y="909"/>
      <point x="143" y="865"/>
      <point x="195" y="832" type="curve" smooth="yes"/>
      <point x="247" y="799"/>
      <point x="307" y="775"/>
      <point x="375" y="760" type="curve" smooth="yes"/>
      <point x="443" y="745"/>
      <point x="521" y="738"/>
      <point x="610" y="738" type="curve"/>
      <point x="607" y="739" type="line"/>
      <point x="607" y="363" type="line"/>
      <point x="461" y="363" type="line"/>
    </contour>
  </outline>
</glyph>
<glyph name="periodcentered" format="1">
  <advance width="670"/>
  <unicode hex="00B7"/>
  <outline>
    <contour>
      <point x="327" y="513" type="curve"/>
      <point x="329" y="514" type="line"/>
      <point x="410" y="514"/>
      <point x="478" y="536"/>
      <point x="533" y="581" type="curve" smooth="yes"/>
      <point x="588" y="626"/>
      <point x="615" y="687"/>
      <point x="615" y="764" type="curve" smooth="yes"/>
      <point x="615" y="839"/>
      <point x="588" y="899"/>
      <point x="535" y="943" type="curve" smooth="yes"/>
      <point x="482" y="987"/>
      <point x="413" y="1009"/>
      <point x="328" y="1009" type="curve" smooth="yes"/>
      <point x="247" y="1009"/>
      <point x="180" y="987"/>
      <point x="128" y="943" type="curve" smooth="yes"/>
      <point x="76" y="899"/>
      <point x="50" y="839"/>
      <point x="50" y="764" type="curve" smooth="yes"/>
      <point x="50" y="687"/>
      <point x="76" y="626"/>
      <point x="129" y="581" type="curve" smooth="yes"/>
      <point x="182" y="536"/>
      <point x="248" y="513"/>
    </contour>
  </outline>
</glyph>
<glyph name="cedilla" format="1">
  <advance width="512"/>
  <unicode hex="00B8"/>
  <outline>
    <contour>
      <point x="60" y="-487" type="line"/>
      <point x="81" y="-487" type="line" smooth="yes"/>
      <point x="278" y="-487"/>
      <point x="449" y="-398"/>
      <point x="449" y="-287" type="curve" smooth="yes"/>
      <point x="449" y="-228"/>
      <point x="405" y="-173"/>
      <point x="316" y="-122" type="curve"/>
      <point x="316" y="0" type="line"/>
      <point x="137" y="0" type="line"/>
      <point x="137" y="-119" type="line"/>
      <point x="197" y="-152"/>
      <point x="247" y="-219"/>
      <point x="247" y="-272" type="curve" smooth="yes"/>
      <point x="247" y="-329"/>
      <point x="190" y="-372"/>
      <point x="60" y="-374" type="curve"/>
    </contour>
    <contour>
      <point x="254" y="0" type="move"/>
    </contour>
    <contour>
      <point x="255" y="0" type="move" name="_bottom"/>
    </contour>
  </outline>
</glyph>
<glyph name="onesuperior" format="1">
  <advance width="601"/>
  <unicode hex="00B9"/>
  <outline>
    <contour>
      <point x="119" y="286" type="line"/>
      <point x="522" y="286" type="line"/>
      <point x="522" y="476" type="line"/>
      <point x="466" y="476" type="line"/>
      <point x="462" y="1091" type="line"/>
      <point x="75" y="993" type="line"/>
      <point x="75" y="842" type="line"/>
      <point x="171" y="843" type="line"/>
      <point x="171" y="476" type="line"/>
      <point x="118" y="476" type="line"/>
    </contour>
  </outline>
</glyph>
<glyph name="ordmasculine" format="1">
  <advance width="1030"/>
  <unicode hex="00BA"/>
  <outline>
    <contour>
      <point x="512" y="500" type="curve" smooth="yes"/>
      <point x="445" y="500"/>
      <point x="411" y="562"/>
      <point x="411" y="685" type="curve"/>
      <point x="414" y="686" type="line"/>
      <point x="414" y="711"/>
      <point x="415" y="732"/>
      <point x="417" y="750" type="curve" smooth="yes"/>
      <point x="419" y="768"/>
      <point x="423" y="786"/>
      <point x="430" y="804" type="curve" smooth="yes"/>
      <point x="437" y="822"/>
      <point x="447" y="836"/>
      <point x="461" y="845" type="curve" smooth="yes"/>
      <point x="475" y="854"/>
      <point x="493" y="859"/>
      <point x="515" y="859" type="curve" smooth="yes"/>
      <point x="537" y="859"/>
      <point x="555" y="854"/>
      <point x="569" y="845" type="curve" smooth="yes"/>
      <point x="583" y="836"/>
      <point x="593" y="822"/>
      <point x="599" y="804" type="curve" smooth="yes"/>
      <point x="605" y="786"/>
      <point x="609" y="768"/>
      <point x="611" y="750" type="curve" smooth="yes"/>
      <point x="613" y="732"/>
      <point x="614" y="710"/>
      <point x="614" y="685" type="curve" smooth="yes"/>
      <point x="614" y="562"/>
      <point x="580" y="500"/>
    </contour>
    <contour>
      <point x="515" y="271" type="curve" smooth="yes"/>
      <point x="649" y="271"/>
      <point x="757" y="308"/>
      <point x="839" y="382" type="curve" smooth="yes"/>
      <point x="921" y="456"/>
      <point x="962" y="558"/>
      <point x="962" y="688" type="curve" smooth="yes"/>
      <point x="962" y="817"/>
      <point x="922" y="916"/>
      <point x="843" y="986" type="curve" smooth="yes"/>
      <point x="764" y="1056"/>
      <point x="655" y="1091"/>
      <point x="516" y="1091" type="curve" smooth="yes"/>
      <point x="378" y="1091"/>
      <point x="269" y="1056"/>
      <point x="189" y="986" type="curve" smooth="yes"/>
      <point x="109" y="916"/>
      <point x="69" y="817"/>
      <point x="69" y="688" type="curve"/>
      <point x="68" y="688" type="line"/>
      <point x="68" y="558"/>
      <point x="109" y="456"/>
      <point x="191" y="382" type="curve" smooth="yes"/>
      <point x="273" y="308"/>
      <point x="381" y="271"/>
    </contour>
  </outline>
</glyph>
<glyph name="Eth" format="1">
  <advance width="1813"/>
  <unicode hex="00D0"/>
  <outline>
    <contour>
      <point x="836" y="347" type="curve"/>
      <point x="838" y="350" type="line"/>
      <point x="807" y="350" type="line"/>
      <point x="804" y="652" type="line"/>
      <point x="889" y="652" type="line"/>
      <point x="889" y="951" type="line"/>
      <point x="803" y="951" type="line"/>
      <point x="803" y="1052" type="line"/>
      <point x="803" y="1170" type="line"/>
      <point x="803" y="1269" type="line"/>
      <point x="850" y="1269" type="line" smooth="yes"/>
      <point x="899" y="1269"/>
      <point x="942" y="1259"/>
      <point x="979" y="1240" type="curve" smooth="yes"/>
      <point x="1016" y="1221"/>
      <point x="1045" y="1197"/>
      <point x="1066" y="1168" type="curve" smooth="yes"/>
      <point x="1087" y="1139"/>
      <point x="1103" y="1103"/>
      <point x="1115" y="1061" type="curve" smooth="yes"/>
      <point x="1127" y="1019"/>
      <point x="1135" y="979"/>
      <point x="1139" y="941" type="curve" smooth="yes"/>
      <point x="1143" y="903"/>
      <point x="1145" y="861"/>
      <point x="1145" y="815" type="curve" smooth="yes"/>
      <point x="1145" y="770"/>
      <point x="1142" y="727"/>
      <point x="1137" y="687" type="curve" smooth="yes"/>
      <point x="1132" y="647"/>
      <point x="1122" y="605"/>
      <point x="1108" y="562" type="curve" smooth="yes"/>
      <point x="1094" y="519"/>
      <point x="1076" y="482"/>
      <point x="1054" y="452" type="curve" smooth="yes"/>
      <point x="1032" y="422"/>
      <point x="1002" y="397"/>
      <point x="965" y="377" type="curve" smooth="yes"/>
      <point x="928" y="357"/>
      <point x="885" y="347"/>
    </contour>
    <contour>
      <point x="91" y="0" type="line"/>
      <point x="893" y="0" type="line" smooth="yes"/>
      <point x="1028" y="0"/>
      <point x="1150" y="22"/>
      <point x="1259" y="67" type="curve" smooth="yes"/>
      <point x="1368" y="112"/>
      <point x="1457" y="172"/>
      <point x="1526" y="248" type="curve" smooth="yes"/>
      <point x="1595" y="324"/>
      <point x="1648" y="410"/>
      <point x="1685" y="507" type="curve" smooth="yes"/>
      <point x="1722" y="604"/>
      <point x="1740" y="707"/>
      <point x="1740" y="816" type="curve" smooth="yes"/>
      <point x="1740" y="1080"/>
      <point x="1672" y="1280"/>
      <point x="1535" y="1417" type="curve" smooth="yes"/>
      <point x="1398" y="1554"/>
      <point x="1192" y="1622"/>
      <point x="917" y="1622" type="curve" smooth="yes"/>
      <point x="87" y="1622" type="line"/>
      <point x="87" y="1270" type="line"/>
      <point x="256" y="1270" type="line"/>
      <point x="254" y="952" type="line"/>
      <point x="124" y="952" type="line"/>
      <point x="124" y="653" type="line"/>
      <point x="254" y="653" type="line"/>
      <point x="254" y="351" type="line"/>
      <point x="91" y="351" type="line"/>
    </contour>
  </outline>
</glyph>
<glyph name="multiply" format="1">
  <advance width="810"/>
  <unicode hex="00D7"/>
  <outline>
    <contour>
      <point x="213" y="274" type="line"/>
      <point x="405" y="467" type="line"/>
      <point x="597" y="274" type="line"/>
      <point x="770" y="447" type="line"/>
      <point x="578" y="640" type="line"/>
      <point x="782" y="844" type="line"/>
      <point x="602" y="1024" type="line"/>
      <point x="405" y="820" type="line"/>
      <point x="208" y="1024" type="line"/>
      <point x="28" y="844" type="line"/>
      <point x="232" y="640" type="line"/>
      <point x="40" y="447" type="line"/>
    </contour>
  </outline>
</glyph>
<glyph name="Thorn" format="1">
  <advance width="1673"/>
  <unicode hex="00DE"/>
  <outline>
    <contour>
      <point x="78" y="0" type="line"/>
      <point x="939" y="0" type="line"/>
      <point x="939" y="363" type="line"/>
      <point x="793" y="363" type="line"/>
      <point x="793" y="569" type="line"/>
      <point x="846" y="562"/>
      <point x="896" y="559"/>
      <point x="943" y="559" type="curve" smooth="yes"/>
      <point x="1044" y="559"/>
      <point x="1134" y="568"/>
      <point x="1213" y="587" type="curve" smooth="yes"/>
      <point x="1292" y="606"/>
      <point x="1361" y="635"/>
      <point x="1420" y="675" type="curve" smooth="yes"/>
      <point x="1479" y="715"/>
      <point x="1524" y="768"/>
      <point x="1555" y="834" type="curve" smooth="yes"/>
      <point x="1586" y="900"/>
      <point x="1602" y="977"/>
      <point x="1602" y="1066" type="curve" smooth="yes"/>
      <point x="1602" y="1115"/>
      <point x="1597" y="1160"/>
      <point x="1587" y="1201" type="curve" smooth="yes"/>
      <point x="1577" y="1242"/>
      <point x="1563" y="1277"/>
      <point x="1546" y="1307" type="curve" smooth="yes"/>
      <point x="1529" y="1337"/>
      <point x="1507" y="1364"/>
      <point x="1480" y="1388" type="curve" smooth="yes"/>
      <point x="1453" y="1412"/>
      <point x="1425" y="1432"/>
      <point x="1396" y="1448" type="curve" smooth="yes"/>
      <point x="1367" y="1464"/>
      <point x="1333" y="1478"/>
      <point x="1293" y="1490" type="curve" smooth="yes"/>
      <point x="1253" y="1502"/>
      <point x="1215" y="1511"/>
      <point x="1179" y="1518" type="curve" smooth="yes"/>
      <point x="1143" y="1525"/>
      <point x="1101" y="1530"/>
      <point x="1054" y="1534" type="curve" smooth="yes"/>
      <point x="1007" y="1538"/>
      <point x="964" y="1540"/>
      <point x="925" y="1541" type="curve" smooth="yes"/>
      <point x="886" y="1542"/>
      <point x="842" y="1542"/>
      <point x="793" y="1542" type="curve"/>
      <point x="794" y="1842" type="line"/>
      <point x="84" y="1842" type="line"/>
      <point x="84" y="1487" type="line"/>
      <point x="235" y="1487" type="line"/>
      <point x="235" y="362" type="line"/>
      <point x="78" y="363" type="line"/>
    </contour>
    <contour>
      <point x="794" y="894" type="line"/>
      <point x="794" y="1207" type="line"/>
      <point x="898" y="1207" type="line" smooth="yes"/>
      <point x="949" y="1207"/>
      <point x="992" y="1194"/>
      <point x="1028" y="1169" type="curve" smooth="yes"/>
      <point x="1064" y="1144"/>
      <point x="1082" y="1106"/>
      <point x="1082" y="1055" type="curve" smooth="yes"/>
      <point x="1082" y="998"/>
      <point x="1062" y="957"/>
      <point x="1023" y="932" type="curve" smooth="yes"/>
      <point x="984" y="907"/>
      <point x="928" y="894"/>
      <point x="855" y="894" type="curve" smooth="yes"/>
    </contour>
  </outline>
</glyph>
<glyph name="eth" format="1">
  <advance width="1401"/>
  <unicode hex="00F0"/>
  <outline>
    <contour>
      <point x="678" y="-19" type="curve" smooth="yes"/>
      <point x="767" y="-19"/>
      <point x="847" y="-7"/>
      <point x="919" y="18" type="curve" smooth="yes"/>
      <point x="991" y="43"/>
      <point x="1051" y="77"/>
      <point x="1100" y="120" type="curve" smooth="yes"/>
      <point x="1149" y="163"/>
      <point x="1190" y="215"/>
      <point x="1223" y="275" type="curve" smooth="yes"/>
      <point x="1256" y="335"/>
      <point x="1280" y="399"/>
      <point x="1295" y="468" type="curve" smooth="yes"/>
      <point x="1310" y="537"/>
      <point x="1317" y="610"/>
      <point x="1317" y="688" type="curve" smooth="yes"/>
      <point x="1317" y="715"/>
      <point x="1317" y="735"/>
      <point x="1316" y="748" type="curve" smooth="yes"/>
      <point x="1303" y="1009"/>
      <point x="1246" y="1214"/>
      <point x="1145" y="1363" type="curve"/>
      <point x="1302" y="1426" type="line"/>
      <point x="1237" y="1585" type="line"/>
      <point x="1023" y="1499" type="line"/>
      <point x="900" y="1602"/>
      <point x="740" y="1654"/>
      <point x="543" y="1654" type="curve" smooth="yes"/>
      <point x="450" y="1654"/>
      <point x="352" y="1643"/>
      <point x="249" y="1621" type="curve"/>
      <point x="249" y="1310" type="line"/>
      <point x="280" y="1317"/>
      <point x="322" y="1321"/>
      <point x="374" y="1321" type="curve" smooth="yes"/>
      <point x="430" y="1321"/>
      <point x="479" y="1313"/>
      <point x="520" y="1297" type="curve"/>
      <point x="340" y="1225" type="line"/>
      <point x="403" y="1068" type="line"/>
      <point x="654" y="1169" type="line"/>
      <point x="670" y="1137"/>
      <point x="686" y="1090"/>
      <point x="702" y="1029" type="curve"/>
      <point x="669" y="1029" type="line" smooth="yes"/>
      <point x="590" y="1029"/>
      <point x="517" y="1020"/>
      <point x="450" y="1002" type="curve" smooth="yes"/>
      <point x="383" y="984"/>
      <point x="326" y="960"/>
      <point x="280" y="929" type="curve" smooth="yes"/>
      <point x="234" y="898"/>
      <point x="195" y="862"/>
      <point x="163" y="820" type="curve" smooth="yes"/>
      <point x="131" y="778"/>
      <point x="107" y="733"/>
      <point x="92" y="686" type="curve" smooth="yes"/>
      <point x="77" y="639"/>
      <point x="69" y="590"/>
      <point x="69" y="539" type="curve" smooth="yes"/>
      <point x="69" y="470"/>
      <point x="82" y="402"/>
      <point x="109" y="336" type="curve" smooth="yes"/>
      <point x="136" y="270"/>
      <point x="174" y="210"/>
      <point x="224" y="157" type="curve" smooth="yes"/>
      <point x="274" y="104"/>
      <point x="338" y="61"/>
      <point x="417" y="29" type="curve" smooth="yes"/>
      <point x="496" y="-3"/>
      <point x="583" y="-19"/>
    </contour>
    <contour>
      <point x="701" y="336" type="curve" smooth="yes"/>
      <point x="627" y="336"/>
      <point x="590" y="413"/>
      <point x="590" y="566" type="curve" smooth="yes"/>
      <point x="590" y="705"/>
      <point x="626" y="775"/>
      <point x="699" y="775" type="curve" smooth="yes"/>
      <point x="764" y="775"/>
      <point x="797" y="703"/>
      <point x="797" y="558" type="curve" smooth="yes"/>
      <point x="797" y="540"/>
      <point x="796" y="521"/>
      <point x="794" y="500" type="curve" smooth="yes"/>
      <point x="792" y="479"/>
      <point x="788" y="455"/>
      <point x="782" y="428" type="curve" smooth="yes"/>
      <point x="776" y="401"/>
      <point x="766" y="379"/>
      <point x="752" y="362" type="curve" smooth="yes"/>
      <point x="738" y="345"/>
      <point x="721" y="336"/>
    </contour>
  </outline>
</glyph>
<glyph name="hbar" format="1">
  <advance width="1490"/>
  <unicode hex="0127"/>
  <outline>
    <contour>
      <point x="88" y="0" type="line"/>
      <point x="741" y="0" type="line"/>
      <point x="741" y="305" type="line"/>
      <point x="661" y="305" type="line"/>
      <point x="661" y="626" type="line" smooth="yes"/>
      <point x="661" y="705"/>
      <point x="695" y="744"/>
      <point x="762" y="744" type="curve" smooth="yes"/>
      <point x="817" y="744"/>
      <point x="845" y="702"/>
      <point x="846" y="619" type="curve" smooth="yes"/>
      <point x="846" y="0" type="line"/>
      <point x="1422" y="0" type="line"/>
      <point x="1422" y="305" type="line"/>
      <point x="1336" y="305" type="line"/>
      <point x="1336" y="702" type="line" smooth="yes"/>
      <point x="1336" y="828"/>
      <point x="1305" y="924"/>
      <point x="1242" y="990" type="curve" smooth="yes"/>
      <point x="1179" y="1056"/>
      <point x="1091" y="1089"/>
      <point x="978" y="1089" type="curve" smooth="yes"/>
      <point x="955" y="1089"/>
      <point x="932" y="1087"/>
      <point x="910" y="1083" type="curve" smooth="yes"/>
      <point x="888" y="1079"/>
      <point x="870" y="1075"/>
      <point x="855" y="1071" type="curve" smooth="yes"/>
      <point x="840" y="1067"/>
      <point x="823" y="1059"/>
      <point x="805" y="1048" type="curve" smooth="yes"/>
      <point x="787" y="1037"/>
      <point x="773" y="1028"/>
      <point x="764" y="1022" type="curve" smooth="yes"/>
      <point x="755" y="1016"/>
      <point x="742" y="1004"/>
      <point x="725" y="987" type="curve" smooth="yes"/>
      <point x="692" y="954" type="line" smooth="yes"/>
      <point x="687" y="949"/>
      <point x="675" y="936"/>
      <point x="657" y="916" type="curve"/>
      <point x="657" y="1133" type="line"/>
      <point x="832" y="1133" type="line"/>
      <point x="832" y="1272" type="line"/>
      <point x="657" y="1272" type="line"/>
      <point x="657" y="1640" type="line"/>
      <point x="84" y="1640" type="line"/>
      <point x="84" y="1332" type="line"/>
      <point x="168" y="1332" type="line"/>
      <point x="168" y="1272" type="line"/>
      <point x="84" y="1272" type="line"/>
      <point x="84" y="1133" type="line"/>
      <point x="168" y="1133" type="line"/>
      <point x="168" y="305" type="line"/>
      <point x="89" y="305" type="line"/>
    </contour>
  </outline>
</glyph>
<glyph name="ij" format="1">
  <advance width="1539"/>
  <unicode hex="0133"/>
  <outline>
    <contour>
      <point x="844" y="-395" type="line"/>
      <point x="1305" y="-395"/>
      <point x="1447" y="-227"/>
      <point x="1447" y="129" type="curve" smooth="yes"/>
      <point x="1447" y="1072" type="line"/>
      <point x="655" y="1072" type="line"/>
      <point x="85" y="1008" type="line"/>
      <point x="85" y="764" type="line"/>
      <point x="174" y="764" type="line"/>
      <point x="174" y="308" type="line"/>
      <point x="92" y="308" type="line"/>
      <point x="92" y="3" type="line"/>
      <point x="739" y="3" type="line"/>
      <point x="739" y="308" type="line"/>
      <point x="655" y="308" type="line"/>
      <point x="655" y="763" type="line"/>
      <point x="950" y="763" type="line"/>
      <point x="950" y="-6" type="line" smooth="yes"/>
      <point x="950" y="-51"/>
      <point x="901" y="-70"/>
      <point x="858" y="-70" type="curve" smooth="yes"/>
      <point x="852" y="-70"/>
      <point x="847" y="-70"/>
      <point x="842" y="-69" type="curve"/>
    </contour>
    <contour>
      <point x="374" y="1138" type="curve" smooth="yes"/>
      <point x="534" y="1138"/>
      <point x="660" y="1232"/>
      <point x="660" y="1388" type="curve" smooth="yes"/>
      <point x="660" y="1538"/>
      <point x="541" y="1633"/>
      <point x="373" y="1633" type="curve" smooth="yes"/>
      <point x="212" y="1633"/>
      <point x="95" y="1539"/>
      <point x="95" y="1388" type="curve" smooth="yes"/>
      <point x="95" y="1233"/>
      <point x="219" y="1138"/>
    </contour>
    <contour>
      <point x="1163" y="1137" type="curve" smooth="yes"/>
      <point x="1323" y="1137"/>
      <point x="1449" y="1231"/>
      <point x="1449" y="1387" type="curve" smooth="yes"/>
      <point x="1449" y="1537"/>
      <point x="1330" y="1632"/>
      <point x="1162" y="1632" type="curve" smooth="yes"/>
      <point x="1001" y="1632"/>
      <point x="884" y="1538"/>
      <point x="884" y="1387" type="curve" smooth="yes"/>
      <point x="884" y="1232"/>
      <point x="1008" y="1137"/>
    </contour>
  </outline>
</glyph>
<glyph name="kgreenlandic" format="1">
  <advance width="1517"/>
  <unicode hex="0138"/>
  <outline>
    <contour>
      <point x="86" y="0" type="line"/>
      <point x="676" y="0" type="line"/>
      <point x="676" y="428" type="line"/>
      <point x="961" y="0" type="line"/>
      <point x="1434" y="0" type="line"/>
      <point x="1434" y="301" type="line"/>
      <point x="1279" y="301" type="line"/>
      <point x="1072" y="578" type="line"/>
      <point x="1073" y="578"/>
      <point x="1245" y="762"/>
      <point x="1245" y="761" type="curve"/>
      <point x="1416" y="761" type="line"/>
      <point x="1416" y="1072" type="line"/>
      <point x="782" y="1072" type="line"/>
      <point x="782" y="761" type="line"/>
      <point x="877" y="761" type="line"/>
      <point x="676" y="547" type="line"/>
      <point x="676" y="1072" type="line"/>
      <point x="85" y="1007" type="line"/>
      <point x="85" y="734" type="line"/>
      <point x="189" y="734" type="line"/>
      <point x="189" y="301" type="line"/>
      <point x="86" y="301" type="line"/>
    </contour>
  </outline>
</glyph>
<glyph name="ldot" format="1">
  <advance width="1445"/>
  <unicode hex="0140"/>
  <outline>
    <contour>
      <point x="88" y="0" type="line"/>
      <point x="796" y="0" type="line"/>
      <point x="796" y="304" type="line"/>
      <point x="698" y="304" type="line"/>
      <point x="698" y="1560" type="line"/>
      <point x="78" y="1495" type="line"/>
      <point x="78" y="1222" type="line"/>
      <point x="203" y="1222" type="line"/>
      <point x="203" y="304" type="line"/>
      <point x="88" y="304" type="line"/>
    </contour>
    <contour>
      <point x="1099" y="514" type="curve" smooth="yes"/>
      <point x="1259" y="514"/>
      <point x="1385" y="608"/>
      <point x="1385" y="764" type="curve" smooth="yes"/>
      <point x="1385" y="914"/>
      <point x="1266" y="1009"/>
      <point x="1098" y="1009" type="curve" smooth="yes"/>
      <point x="937" y="1009"/>
      <point x="820" y="915"/>
      <point x="820" y="764" type="curve" smooth="yes"/>
      <point x="820" y="609"/>
      <point x="944" y="514"/>
    </contour>
  </outline>
</glyph>
<glyph name="OE" format="1">
  <advance width="2319"/>
  <unicode hex="0152"/>
  <outline>
    <contour>
      <point x="907" y="0" type="curve" smooth="yes"/>
      <point x="909" y="0" type="line"/>
      <point x="2229" y="0" type="line"/>
      <point x="2229" y="687" type="line"/>
      <point x="1956" y="687" type="line"/>
      <point x="1893" y="420" type="line"/>
      <point x="1880" y="350" type="line"/>
      <point x="1661" y="350" type="line"/>
      <point x="1661" y="636" type="line"/>
      <point x="1866" y="636" type="line"/>
      <point x="1866" y="988" type="line"/>
      <point x="1661" y="988" type="line"/>
      <point x="1661" y="1258" type="line"/>
      <point x="1874" y="1258" type="line"/>
      <point x="1950" y="956" type="line"/>
      <point x="2218" y="957" type="line"/>
      <point x="2218" y="1610" type="line"/>
      <point x="903" y="1610" type="line" smooth="yes"/>
      <point x="739" y="1610"/>
      <point x="593" y="1575"/>
      <point x="466" y="1506" type="curve" smooth="yes"/>
      <point x="339" y="1437"/>
      <point x="241" y="1340"/>
      <point x="172" y="1216" type="curve" smooth="yes"/>
      <point x="103" y="1092"/>
      <point x="68" y="951"/>
      <point x="68" y="792" type="curve" smooth="yes"/>
      <point x="69" y="552"/>
      <point x="145" y="360"/>
      <point x="297" y="216" type="curve" smooth="yes"/>
      <point x="449" y="72"/>
      <point x="652" y="0"/>
    </contour>
    <contour>
      <point x="908" y="350" type="line" smooth="yes"/>
      <point x="879" y="350"/>
      <point x="853" y="354"/>
      <point x="830" y="362" type="curve" smooth="yes"/>
      <point x="807" y="370"/>
      <point x="788" y="380"/>
      <point x="773" y="393" type="curve" smooth="yes"/>
      <point x="758" y="406"/>
      <point x="745" y="423"/>
      <point x="734" y="445" type="curve" smooth="yes"/>
      <point x="723" y="467"/>
      <point x="714" y="488"/>
      <point x="708" y="509" type="curve" smooth="yes"/>
      <point x="702" y="530"/>
      <point x="697" y="555"/>
      <point x="694" y="585" type="curve" smooth="yes"/>
      <point x="691" y="615"/>
      <point x="689" y="642"/>
      <point x="688" y="666" type="curve" smooth="yes"/>
      <point x="687" y="690"/>
      <point x="686" y="719"/>
      <point x="686" y="754" type="curve"/>
      <point x="684" y="755" type="line"/>
      <point x="684" y="817" type="line"/>
      <point x="682" y="852"/>
      <point x="682" y="887"/>
      <point x="684" y="923" type="curve" smooth="yes"/>
      <point x="686" y="959"/>
      <point x="688" y="993"/>
      <point x="690" y="1026" type="curve" smooth="yes"/>
      <point x="692" y="1059"/>
      <point x="698" y="1089"/>
      <point x="708" y="1117" type="curve" smooth="yes"/>
      <point x="718" y="1145"/>
      <point x="730" y="1169"/>
      <point x="745" y="1190" type="curve" smooth="yes"/>
      <point x="760" y="1211"/>
      <point x="780" y="1227"/>
      <point x="806" y="1239" type="curve" smooth="yes"/>
      <point x="832" y="1251"/>
      <point x="862" y="1257"/>
      <point x="897" y="1257" type="curve" smooth="yes"/>
      <point x="1107" y="1257" type="line"/>
      <point x="1107" y="350" type="line"/>
    </contour>
    <contour>
      <point x="1135" y="1592" type="move" name="top"/>
    </contour>
  </outline>
</glyph>
<glyph name="dotlessj" format="1">
  <advance width="773"/>
  <unicode hex="0237"/>
  <outline>
    <contour>
      <point x="62" y="-398" type="line"/>
      <point x="479" y="-398"/>
      <point x="686" y="-269"/>
      <point x="686" y="129" type="curve" smooth="yes"/>
      <point x="686" y="1072" type="line"/>
      <point x="69" y="1008" type="line"/>
      <point x="69" y="761" type="line"/>
      <point x="199" y="761" type="line"/>
      <point x="199" y="-9" type="line" smooth="yes"/>
      <point x="197" y="-65"/>
      <point x="127" y="-72"/>
      <point x="74" y="-72" type="curve" smooth="yes"/>
      <point x="62" y="-72" type="line"/>
    </contour>
    <contour>
      <point x="346" y="1072" type="move" name="top"/>
    </contour>
  </outline>
</glyph>
<glyph name="dotaccent" format="1">
  <advance width="685"/>
  <unicode hex="02D9"/>
  <outline>
    <contour>
      <point x="338" y="1210" type="curve" smooth="yes"/>
      <point x="498" y="1210"/>
      <point x="624" y="1304"/>
      <point x="624" y="1460" type="curve" smooth="yes"/>
      <point x="624" y="1610"/>
      <point x="505" y="1705"/>
      <point x="337" y="1705" type="curve" smooth="yes"/>
      <point x="176" y="1705"/>
      <point x="59" y="1611"/>
      <point x="59" y="1460" type="curve" smooth="yes"/>
      <point x="59" y="1305"/>
      <point x="183" y="1210"/>
    </contour>
    <contour>
      <point x="341" y="1072" type="move"/>
    </contour>
    <contour>
      <point x="342" y="1072" type="move" name="_top"/>
    </contour>
  </outline>
</glyph>
<glyph name="ogonek" format="1">
  <advance width="527"/>
  <unicode hex="02DB"/>
  <outline>
    <contour>
      <point x="434" y="-488" type="curve" smooth="yes"/>
      <point x="455" y="-488" type="line"/>
      <point x="455" y="-375" type="line"/>
      <point x="324" y="-373"/>
      <point x="268" y="-330"/>
      <point x="268" y="-273" type="curve" smooth="yes"/>
      <point x="268" y="-231"/>
      <point x="330" y="-158"/>
      <point x="407" y="0" type="curve"/>
      <point x="231" y="0" type="line"/>
      <point x="76" y="-243"/>
      <point x="66" y="-242"/>
      <point x="66" y="-288" type="curve" smooth="yes"/>
      <point x="66" y="-399"/>
      <point x="237" y="-488"/>
    </contour>
    <contour>
      <point x="260" y="0" type="move"/>
    </contour>
    <contour>
      <point x="455" y="10" type="move" name="_ogonek"/>
    </contour>
  </outline>
</glyph>
<glyph name="tilde" format="1">
  <advance width="1000"/>
  <unicode hex="02DC"/>
  <outline>
    <contour>
      <point x="329" y="1246" type="curve" smooth="yes"/>
      <point x="178" y="1246"/>
      <point x="143" y="1408"/>
      <point x="54" y="1534" type="curve"/>
      <point x="168" y="1609" type="line"/>
      <point x="272" y="1508"/>
      <point x="293" y="1497"/>
      <point x="319" y="1497" type="curve" smooth="yes"/>
      <point x="418" y="1497"/>
      <point x="537" y="1623"/>
      <point x="674" y="1623" type="curve" smooth="yes"/>
      <point x="672" y="1623" type="line" smooth="yes"/>
      <point x="818" y="1623"/>
      <point x="855" y="1456"/>
      <point x="944" y="1331" type="curve"/>
      <point x="831" y="1257" type="line"/>
      <point x="730" y="1353"/>
      <point x="713" y="1366"/>
      <point x="685" y="1366" type="curve" smooth="yes"/>
      <point x="596" y="1366"/>
      <point x="439" y="1246"/>
    </contour>
    <contour>
      <point x="499" y="1072" type="move"/>
    </contour>
    <contour>
      <point x="499" y="1072" type="move" name="_top"/>
    </contour>
  </outline>
</glyph>
<glyph name="dotaccentcmb" format="1">
  <advance width="703"/>
  <unicode hex="0307"/>
  <outline>
    <contour>
      <point x="344" y="1210" type="curve" smooth="yes"/>
      <point x="504" y="1210"/>
      <point x="630" y="1304"/>
      <point x="630" y="1460" type="curve" smooth="yes"/>
      <point x="630" y="1610"/>
      <point x="511" y="1705"/>
      <point x="343" y="1705" type="curve" smooth="yes"/>
      <point x="182" y="1705"/>
      <point x="65" y="1611"/>
      <point x="65" y="1460" type="curve" smooth="yes"/>
      <point x="65" y="1305"/>
      <point x="189" y="1210"/>
    </contour>
    <contour>
      <point x="342" y="1072" type="move" name="_top"/>
    </contour>
  </outline>
</glyph>
<glyph name="uni0326" format="1">
  <advance width="712"/>
  <unicode hex="0326"/>
  <outline>
    <contour>
      <point x="88" y="-960" type="curve"/>
      <point x="88" y="-735" type="line"/>
      <point x="87" y="-736" type="line"/>
      <point x="117" y="-736"/>
      <point x="143" y="-734"/>
      <point x="165" y="-730" type="curve" smooth="yes"/>
      <point x="187" y="-726"/>
      <point x="205" y="-719"/>
      <point x="219" y="-709" type="curve" smooth="yes"/>
      <point x="233" y="-699"/>
      <point x="244" y="-688"/>
      <point x="252" y="-677" type="curve" smooth="yes"/>
      <point x="260" y="-666"/>
      <point x="266" y="-651"/>
      <point x="270" y="-631" type="curve" smooth="yes"/>
      <point x="274" y="-611"/>
      <point x="276" y="-593"/>
      <point x="277" y="-578" type="curve" smooth="yes"/>
      <point x="278" y="-563"/>
      <point x="278" y="-541"/>
      <point x="278" y="-513" type="curve"/>
      <point x="89" y="-513" type="line"/>
      <point x="89" y="-147" type="line"/>
      <point x="599" y="-147" type="line"/>
      <point x="615" y="-250"/>
      <point x="623" y="-342"/>
      <point x="623" y="-424" type="curve" smooth="yes"/>
      <point x="623" y="-609"/>
      <point x="580" y="-745"/>
      <point x="493" y="-831" type="curve" smooth="yes"/>
      <point x="406" y="-917"/>
      <point x="271" y="-960"/>
    </contour>
    <contour>
      <point x="302" y="0" type="move" name="_bottom"/>
    </contour>
  </outline>
</glyph>
<glyph name="endash" format="1">
  <advance width="783"/>
  <unicode hex="2013"/>
  <outline>
    <contour>
      <point x="68" y="537" type="line"/>
      <point x="715" y="537" type="line"/>
      <point x="715" y="836" type="line"/>
      <point x="68" y="836" type="line"/>
    </contour>
  </outline>
</glyph>
<glyph name="emdash" format="1">
  <advance width="1306"/>
  <unicode hex="2014"/>
  <outline>
    <contour>
      <point x="68" y="537" type="line"/>
      <point x="1238" y="537" type="line"/>
      <point x="1238" y="836" type="line"/>
      <point x="68" y="836" type="line"/>
    </contour>
  </outline>
</glyph>
<glyph name="quotedblbase" format="1">
  <advance width="1235"/>
  <unicode hex="201E"/>
  <outline>
    <contour>
      <point x="35" y="-449" type="curve"/>
      <point x="35" y="-224" type="line"/>
      <point x="34" y="-225" type="line"/>
      <point x="64" y="-225"/>
      <point x="90" y="-223"/>
      <point x="112" y="-219" type="curve" smooth="yes"/>
      <point x="134" y="-215"/>
      <point x="152" y="-208"/>
      <point x="166" y="-198" type="curve" smooth="yes"/>
      <point x="180" y="-188"/>
      <point x="191" y="-177"/>
      <point x="199" y="-166" type="curve" smooth="yes"/>
      <point x="207" y="-155"/>
      <point x="213" y="-140"/>
      <point x="217" y="-120" type="curve" smooth="yes"/>
      <point x="221" y="-100"/>
      <point x="223" y="-82"/>
      <point x="224" y="-67" type="curve" smooth="yes"/>
      <point x="225" y="-52"/>
      <point x="225" y="-30"/>
      <point x="225" y="-2" type="curve"/>
      <point x="36" y="-2" type="line"/>
      <point x="36" y="364" type="line"/>
      <point x="546" y="364" type="line"/>
      <point x="562" y="261"/>
      <point x="570" y="169"/>
      <point x="570" y="87" type="curve" smooth="yes"/>
      <point x="570" y="-98"/>
      <point x="527" y="-234"/>
      <point x="440" y="-320" type="curve" smooth="yes"/>
      <point x="353" y="-406"/>
      <point x="218" y="-449"/>
    </contour>
    <contour>
      <point x="671" y="-448" type="curve"/>
      <point x="671" y="-223" type="line"/>
      <point x="670" y="-224" type="line"/>
      <point x="700" y="-224"/>
      <point x="726" y="-222"/>
      <point x="748" y="-218" type="curve" smooth="yes"/>
      <point x="770" y="-214"/>
      <point x="788" y="-207"/>
      <point x="802" y="-197" type="curve" smooth="yes"/>
      <point x="816" y="-187"/>
      <point x="827" y="-176"/>
      <point x="835" y="-165" type="curve" smooth="yes"/>
      <point x="843" y="-154"/>
      <point x="849" y="-139"/>
      <point x="853" y="-119" type="curve" smooth="yes"/>
      <point x="857" y="-99"/>
      <point x="859" y="-81"/>
      <point x="860" y="-66" type="curve" smooth="yes"/>
      <point x="861" y="-51"/>
      <point x="861" y="-29"/>
      <point x="861" y="-1" type="curve"/>
      <point x="672" y="-1" type="line"/>
      <point x="672" y="365" type="line"/>
      <point x="1182" y="365" type="line"/>
      <point x="1198" y="262"/>
      <point x="1206" y="170"/>
      <point x="1206" y="88" type="curve" smooth="yes"/>
      <point x="1206" y="-97"/>
      <point x="1163" y="-233"/>
      <point x="1076" y="-319" type="curve" smooth="yes"/>
      <point x="989" y="-405"/>
      <point x="854" y="-448"/>
    </contour>
  </outline>
</glyph>
<glyph name="guilsinglleft" format="1">
  <advance width="715"/>
  <unicode hex="2039"/>
  <outline>
    <contour>
      <point x="481" y="-5" type="line"/>
      <point x="672" y="219" type="line"/>
      <point x="357" y="534" type="line"/>
      <point x="672" y="849" type="line"/>
      <point x="481" y="1073" type="line"/>
      <point x="55" y="669" type="line"/>
      <point x="55" y="399" type="line"/>
    </contour>
  </outline>
</glyph>
<glyph name="uniFB01" format="1">
  <advance width="1686"/>
  <unicode hex="FB01"/>
  <outline>
    <contour>
      <point x="85" y="0" type="line"/>
      <point x="765" y="0" type="line"/>
      <point x="765" y="299" type="line"/>
      <point x="655" y="299" type="line"/>
      <point x="655" y="761" type="line"/>
      <point x="1048" y="761" type="line"/>
      <point x="1048" y="299" type="line"/>
      <point x="966" y="299" type="line"/>
      <point x="966" y="0" type="line"/>
      <point x="1613" y="0" type="line"/>
      <point x="1613" y="299" type="line"/>
      <point x="1529" y="299" type="line"/>
      <point x="1529" y="1072" type="line"/>
      <point x="647" y="1074" type="line"/>
      <point x="643" y="1146"/>
      <point x="650" y="1196"/>
      <point x="668" y="1224" type="curve" smooth="yes"/>
      <point x="686" y="1252"/>
      <point x="716" y="1266"/>
      <point x="758" y="1266" type="curve" smooth="yes"/>
      <point x="783" y="1266"/>
      <point x="815" y="1262"/>
      <point x="854" y="1253" type="curve"/>
      <point x="854" y="1564" type="line"/>
      <point x="845" y="1567"/>
      <point x="832" y="1571"/>
      <point x="814" y="1576" type="curve" smooth="yes"/>
      <point x="796" y="1581"/>
      <point x="760" y="1588"/>
      <point x="706" y="1597" type="curve" smooth="yes"/>
      <point x="652" y="1606"/>
      <point x="599" y="1610"/>
      <point x="546" y="1610" type="curve" smooth="yes"/>
      <point x="293" y="1610"/>
      <point x="166" y="1476"/>
      <point x="166" y="1207" type="curve" smooth="yes"/>
      <point x="167" y="1119"/>
      <point x="168" y="1074"/>
      <point x="168" y="1072" type="curve"/>
      <point x="85" y="1072" type="line"/>
      <point x="85" y="761" type="line"/>
      <point x="169" y="761" type="line"/>
      <point x="169" y="299" type="line"/>
      <point x="85" y="299" type="line"/>
    </contour>
    <contour>
      <point x="1245" y="1136" type="curve"/>
      <point x="1247" y="1137" type="line"/>
      <point x="1328" y="1137"/>
      <point x="1396" y="1159"/>
      <point x="1451" y="1204" type="curve" smooth="yes"/>
      <point x="1506" y="1249"/>
      <point x="1533" y="1310"/>
      <point x="1533" y="1387" type="curve" smooth="yes"/>
      <point x="1533" y="1462"/>
      <point x="1506" y="1522"/>
      <point x="1453" y="1566" type="curve" smooth="yes"/>
      <point x="1400" y="1610"/>
      <point x="1331" y="1632"/>
      <point x="1246" y="1632" type="curve" smooth="yes"/>
      <point x="1165" y="1632"/>
      <point x="1098" y="1610"/>
      <point x="1046" y="1566" type="curve" smooth="yes"/>
      <point x="994" y="1522"/>
      <point x="968" y="1462"/>
      <point x="968" y="1387" type="curve" smooth="yes"/>
      <point x="968" y="1310"/>
      <point x="994" y="1249"/>
      <point x="1047" y="1204" type="curve" smooth="yes"/>
      <point x="1100" y="1159"/>
      <point x="1166" y="1136"/>
    </contour>
  </outline>
</glyph>
<glyph name="uniFB02" format="1">
  <advance width="1696"/>
  <unicode hex="FB02"/>
  <outline>
    <contour>
      <point x="974" y="-3" type="line"/>
      <point x="1621" y="-3" type="line"/>
      <point x="1621" y="303" type="line"/>
      <point x="1543" y="303" type="line"/>
      <point x="1543" y="1630" type="line"/>
      <point x="964" y="1630" type="line" smooth="yes"/>
      <point x="950" y="1630"/>
      <point x="926" y="1630"/>
      <point x="892" y="1631" type="curve" smooth="yes"/>
      <point x="858" y="1632"/>
      <point x="828" y="1633"/>
      <point x="802" y="1634" type="curve" smooth="yes"/>
      <point x="776" y="1635"/>
      <point x="743" y="1634"/>
      <point x="703" y="1632" type="curve" smooth="yes"/>
      <point x="663" y="1630"/>
      <point x="627" y="1627"/>
      <point x="595" y="1623" type="curve" smooth="yes"/>
      <point x="563" y="1619"/>
      <point x="528" y="1612"/>
      <point x="490" y="1603" type="curve" smooth="yes"/>
      <point x="452" y="1594"/>
      <point x="418" y="1583"/>
      <point x="389" y="1569" type="curve" smooth="yes"/>
      <point x="360" y="1555"/>
      <point x="331" y="1537"/>
      <point x="302" y="1515" type="curve" smooth="yes"/>
      <point x="273" y="1493"/>
      <point x="249" y="1468"/>
      <point x="230" y="1440" type="curve" smooth="yes"/>
      <point x="211" y="1412"/>
      <point x="196" y="1378"/>
      <point x="184" y="1338" type="curve" smooth="yes"/>
      <point x="172" y="1298"/>
      <point x="166" y="1254"/>
      <point x="166" y="1206" type="curve" smooth="yes"/>
      <point x="167" y="1118"/>
      <point x="168" y="1073"/>
      <point x="168" y="1071" type="curve"/>
      <point x="85" y="1071" type="line"/>
      <point x="85" y="760" type="line"/>
      <point x="169" y="760" type="line"/>
      <point x="169" y="298" type="line"/>
      <point x="85" y="298" type="line"/>
      <point x="85" y="-1" type="line"/>
      <point x="765" y="-1" type="line"/>
      <point x="765" y="298" type="line"/>
      <point x="655" y="298" type="line"/>
      <point x="655" y="760" type="line"/>
      <point x="827" y="760" type="line"/>
      <point x="827" y="1071" type="line"/>
      <point x="650" y="1071" type="line"/>
      <point x="650" y="1175" type="line" smooth="yes"/>
      <point x="650" y="1196"/>
      <point x="656" y="1218"/>
      <point x="668" y="1241" type="curve" smooth="yes"/>
      <point x="680" y="1264"/>
      <point x="690" y="1279"/>
      <point x="699" y="1285" type="curve" smooth="yes"/>
      <point x="708" y="1291"/>
      <point x="732" y="1297"/>
      <point x="772" y="1304" type="curve" smooth="yes"/>
      <point x="812" y="1311"/>
      <point x="848" y="1314"/>
      <point x="880" y="1314" type="curve" smooth="yes"/>
      <point x="1048" y="1314" type="line"/>
      <point x="1048" y="303" type="line"/>
      <point x="974" y="303" type="line"/>
    </contour>
  </outline>
</glyph>
<glyph name="lc_tall_stem" format="1">
  <advance width="0"/>
  <outline>
    <contour>
      <point x="50" y="0" type="line"/>
      <point x="859" y="0" type="line"/>
      <point x="859" y="301" type="line"/>
      <point x="705" y="301" type="line"/>
      <point x="705" y="1560" type="line"/>
      <point x="50" y="1495" type="line"/>
      <point x="50" y="1222" type="line"/>
      <point x="225" y="1222" type="line"/>
      <point x="225" y="301" type="line"/>
      <point x="50" y="301" type="line"/>
    </contour>
  </outline>
</glyph>
<glyph name="lc_xheight_curved_stem" format="1">
  <advance width="1560"/>
  <outline>
    <contour>
      <point x="728" y="506" type="line"/>
      <point x="728" y="636"/>
      <point x="728" y="791"/>
      <point x="839" y="791" type="curve" smooth="yes"/>
      <point x="893" y="791"/>
      <point x="933" y="738"/>
      <point x="933" y="681" type="curve" smooth="yes"/>
      <point x="933" y="0" type="line"/>
      <point x="1552" y="0" type="line"/>
      <point x="1552" y="288" type="line"/>
      <point x="1413" y="288" type="line"/>
      <point x="1413" y="680" type="line" smooth="yes"/>
      <point x="1413" y="955"/>
      <point x="1304" y="1091"/>
      <point x="1084" y="1091" type="curve" smooth="yes"/>
      <point x="837" y="1091"/>
      <point x="642" y="976"/>
      <point x="547" y="506" type="curve"/>
    </contour>
  </outline>
</glyph>
